<?xml version="1.0" encoding="utf-8"?>
<!-- Generator: Adobe Illustrator 16.0.3, SVG Export Plug-In . SVG Version: 6.00 Build 0)  -->
<!DOCTYPE svg PUBLIC "-//W3C//DTD SVG 1.1//EN" "http://www.w3.org/Graphics/SVG/1.1/DTD/svg11.dtd">
<svg version="1.1" id="Capa_1" xmlns="http://www.w3.org/2000/svg" xmlns:xlink="http://www.w3.org/1999/xlink" x="0px" y="0px"
	 width="1100px" height="800px" viewBox="0 0 1100 800" enable-background="new 0 0 1100 800" xml:space="preserve">
<rect x="0.496" y="0.606" opacity="0.7" fill="#3B455A" enable-background="new    " width="1099.879" height="799.8"/>
<g>
	<path fill="#3B455A" stroke="#000000" stroke-miterlimit="10" d="M211.538,158.628c0.422-2.618,0.151-6.028-2.348-6.911
		c-1.37-0.485-2.904,0.046-4.327-0.244c-3.033-0.617-4.067-4.29-5.657-6.945c-0.238-0.397-0.521-0.8-0.945-0.989
		c-0.604-0.27-1.299-0.03-1.957,0.05c-3.018,0.369-5.312-2.61-8.155-3.69c-3.518-1.337-7.945,0.863-9.005,4.474
		c-0.435,1.484-0.36,3.079-0.768,4.57c-1.657,6.043-10.507,8.614-10.73,14.876c-0.151,4.231,3.99,8.285,2.38,12.202
		c-1.029,2.504-4.252,4.211-3.883,6.894c0.237,1.725,2.075,2.9,3.816,2.876c1.742-0.025,3.342-0.98,4.654-2.126
		c2.083-1.819,3.652-4.152,5.636-6.078c1.984-1.926,4.63-3.488,7.373-3.145c2.658,0.332,5.062,2.4,7.703,1.958
		c2.113-0.354,3.68-2.239,5.756-2.77c1.941-0.497,3.96,0.266,5.96,0.386c2.001,0.121,4.458-0.92,4.51-2.923
		c0.013-0.486-0.122-0.987,0.03-1.448c0.427-1.292,2.633-1.218,3.052-2.512c-1.044-1.61-2.517-1.033-3.265-3.135
		C210.788,162.372,211.272,160.271,211.538,158.628L211.538,158.628z"/>
	<path fill="#587BC9" stroke="#000000" stroke-miterlimit="10" d="M326.513,281.907c0.832-5.271,1.6-10.654,2.729-16.114
		c3.16-15.298,4.142-31.188,2.9-46.913c-6.535-1.761-13.359-2.078-19.952-0.928c0.081-0.014-8.125,36.579-9.901,40.256
		c-4.582,9.494-4.205,8.372-12.556,4.349c-7.318-3.526-14.055-8.905-21.253-12.792c-6.957-3.756-14.626-7.298-22.461-6.238
		c-0.723,9.043-1.105,18.112-1.147,27.184c-0.016,3.25,0.029,6.585,1.211,9.613c1.141,2.924,3.258,5.343,5.335,7.697
		c12.912,14.634,26.346,29.668,44.032,37.921c0.88,0.409,1.792,0.809,2.761,0.862c1.514,0.085,2.931-0.674,4.256-1.408
		C319.079,316.173,323.648,299.915,326.513,281.907L326.513,281.907z"/>
	<polygon fill="#7DB5DB" stroke="#000000" stroke-miterlimit="10" points="571.438,208.421 637.137,235.61 666.672,208.421 
		685.313,215.004 637.137,277.375 582.592,277.375 	"/>
	<polygon fill="#7DB5DB" stroke="#000000" stroke-miterlimit="10" points="529.818,213.208 436.73,310.017 468.507,382.133 
		491.287,370.983 477.493,314.608 534.282,283.342 	"/>
	<path opacity="0.1" fill="#E8E8E8" stroke="#000000" stroke-miterlimit="10" enable-background="new    " d="M258.482,759.738
		c-11.706,0-23.406-0.355-35.094-1.201c-15.891-1.148-32.298-3.396-45.794-11.863c-7.454-4.678-13.971-11.512-16.271-20.006
		c-2.3-8.49,0.518-18.67,8.017-23.27c2.75-1.689,5.968-2.586,8.518-4.563c2.551-1.975,4.273-5.695,2.575-8.438
		c-2.762,0.004-11.132,0.432-21.285,0.432c-27.221,0-67.287-3.082-46.673-25.717c7.754-8.517,30.501-9.465,49.329-9.465
		c2.702,0,5.32,0.02,7.805,0.038c2.487,0.021,4.837,0.039,6.994,0.039c3.16,0,5.906-0.041,8.063-0.188
		c17.179-1.16,34.372-2.129,51.57-2.93c1.341,0.731,2.706,1.422,4.07,2.086c7.049,3.43,14.479,6.891,22.203,10.143
		c4.682,4.367,9.87,8.193,15.437,11.357c3.365,1.911,7.091,3.35,11.044,4.407c0.491,0.854,1.035,1.687,1.633,2.49
		c0,0,0.001,0.002,0.002,0.002c0.008,0.013,0.016,0.021,0.025,0.033c0.002,0.004,0.005,0.006,0.007,0.01
		c0.008,0.011,0.016,0.021,0.024,0.031c0.002,0.004,0.004,0.008,0.007,0.01c0.017,0.021,0.033,0.045,0.05,0.066
		c0,0,0.001,0.002,0.002,0.004c0.007,0.01,0.014,0.018,0.021,0.027c0.005,0.006,0.008,0.01,0.013,0.016
		c0.006,0.01,0.013,0.018,0.019,0.025c0.005,0.006,0.01,0.014,0.015,0.021c0.005,0.006,0.012,0.016,0.017,0.021
		c0.008,0.01,0.015,0.02,0.022,0.028c0.007,0.008,0.014,0.019,0.021,0.025c0.007,0.012,0.015,0.021,0.022,0.029
		c0.005,0.006,0.01,0.012,0.015,0.021c0.007,0.008,0.014,0.016,0.02,0.023c0.005,0.006,0.009,0.012,0.014,0.02
		c0.007,0.01,0.015,0.021,0.023,0.027c0.004,0.006,0.008,0.012,0.011,0.018c0.011,0.014,0.023,0.027,0.034,0.043
		c0.002,0.002,0.004,0.004,0.006,0.008c0.01,0.013,0.02,0.025,0.029,0.037c0.004,0.004,0.007,0.008,0.01,0.013
		c0.009,0.012,0.018,0.022,0.027,0.034c0.003,0.005,0.006,0.007,0.009,0.011c0.011,0.016,0.021,0.026,0.032,0.041
		c0.001,0.002,0.002,0.002,0.003,0.004c0.013,0.016,0.025,0.031,0.038,0.047c0,0.002,0.001,0.002,0.002,0.004
		c0.011,0.014,0.022,0.027,0.033,0.041c0.003,0.004,0.005,0.008,0.008,0.01c0.01,0.015,0.02,0.025,0.031,0.039
		c0.002,0.002,0.003,0.004,0.005,0.006c0.025,0.031,0.05,0.063,0.075,0.095c0.001,0.002,0.003,0.004,0.004,0.006
		c0.011,0.012,0.022,0.024,0.033,0.039c0.001,0.002,0.002,0.004,0.004,0.006c-2.187,5.455-4.142,11.004-5.858,16.627
		c-1.146,3.754-2.195,7.615-2.05,11.537c0.23,6.205,4.973,11.256,10.085,11.256c2.452,0,4.988-1.16,7.153-3.912
		c2.926-3.719,5.271-7.895,6.931-12.322c0.859-2.293,0.78-3.313,0.128-3.758c0.244-0.254,0.479-0.512,0.701-0.773
		c2.634-3.114,4.549-6.93,7.479-9.688c0.002,0,0.004,0,0.006-0.002c1.425,1.899,2.663,3.115,3.463,3.115
		c0.064,0,0.124-0.007,0.182-0.021c17.293-4.574,34.351-12.396,50.572-21.627c6.808-2.336,13.44-5.182,19.821-8.514
		c7.446-3.89,14.353-8.291,16.9-15.197c3.197-2.271,6.329-4.537,9.391-6.783c2.719-0.17,5.438-0.334,8.166-0.492
		c11.617-0.674,23.241-1.317,34.862-1.936l5.765,28.213l47.563-9.719l12.688,1.074l1.038-3.88l109.91-22.461
		c12.18-0.266,24.367-0.481,36.549-0.651c20.063-0.277,40.129-0.424,60.191-0.424c23.018,0,46.029,0.192,69.045,0.596
		c4.854,0.084,9.715,0.18,14.582,0.297l1.01,2.928l22.787-1.729l0.035-0.412c25.834,1.131,51.621,3.332,76.815,8.145
		c6.443,1.229,12.851,2.632,19.205,4.229l3.855,5.854l7.196-2.86c5.375,1.563,10.712,3.285,16.005,5.174
		c9.317,3.326,19.362,8.049,23.01,17.25c4.481,11.313-3.426,24.484-14.213,30.115c-9.729,5.075-21.033,5.604-32.082,5.604
		c-1.207,0-2.41-0.006-3.607-0.014c-35.053-0.217-70.123-0.31-105.176-0.31c-91.699,0-183.381,0.625-275.076,1.252
		c-20.568,0.142-41.14,0.281-61.711,0.423c-3.776,0.024-7.741,0.098-11.038,1.944c-7.379,4.135-1.562,7.644-2.658,12.633
		c-1.35,6.138-4.301,11.394-9.66,14.982c-8.027,5.375-18.121,6.338-27.748,7.143c-29.665,2.484-59.331,4.968-88.998,7.449
		C322.606,757.061,290.525,759.738,258.482,759.738"/>
	<path fill="#E5D1BD" stroke="#000000" stroke-miterlimit="10" d="M166.391,644.176c-3.14,0.207-6.013-0.896-9.056-1.235
		c0.145-10.75,1.31-21.06,3.626-31.675c4.733,5.256,8.718,2.201,8.557,12.072C169.466,626.533,165.776,639.313,166.391,644.176
		L166.391,644.176z"/>
	<path fill="#EACDB0" stroke="#000000" stroke-miterlimit="10" d="M674.004,206.138c0.32-0.37,0.656-0.788,0.646-1.276
		c-0.015-0.624-0.57-1.07-0.998-1.524c-1.789-1.894-1.472-5.389,0.703-6.827c2.174-1.438,5.612-0.252,6.327,2.254
		c2.679-1.088,5.128-2.728,7.154-4.787c0.764-0.775,1.59-1.669,2.676-1.713c0.66-0.027,1.283,0.275,1.873,0.574
		c1.291,0.656,2.572,1.334,3.843,2.033c1.684,0.926,3.465,2.023,4.146,3.817c1.072,2.815-1.012,5.765-2.963,8.059
		c-0.437,0.509-0.877,1.026-1.441,1.385c-0.67,0.426-1.465,0.599-2.221,0.842c-1.801,0.581-3.434,1.584-5.045,2.578
		c-4.979,3.071-9.953,6.141-14.932,9.212c-0.156,0.079-4.238-6.778-4.234-7.725C669.547,210.294,672.334,208.069,674.004,206.138"/>
	<path fill="#3B455A" stroke="#000000" stroke-miterlimit="10" d="M156.648,637.592c-3.571-1.276-4.376,7.25-4.404,9.254
		c-0.016,1.205,0.127,2.437-0.18,3.601c-0.336,1.28-1.183,2.36-2.008,3.397c-1.729,2.174-3.458,4.349-5.187,6.521
		c-0.777,0.979-1.568,1.979-1.984,3.155c-1.033,2.916,0.673,6.375,3.435,7.771c9.584,4.842,18.339-6.883,20.414-14.621
		c0.318-1.186,0.551-2.395,0.783-3.6c0.479-2.496,2.368-7.937,1.377-10.373c-1.155-2.844-4.655-0.783-6.948-1.855
		C159.818,639.848,158.093,638.111,156.648,637.592L156.648,637.592z"/>
	<path fill="#BCBEC0" stroke="#000000" stroke-miterlimit="10" d="M224.736,467.047c-8.935,24.322-19.245,48.115-25.125,73.578
		c-7.263,31.455-18.974,62.131-24.984,93.654c-3.884,0.127-7.777-0.039-11.636-0.494c-4.424-0.521-11.445-1.717-13.042-6.547
		c-0.816-2.47,0.049-6.482,0.173-9.049c0.399-8.216,0.986-16.423,1.59-24.623c1.709-23.205,2.881-46.695,7.15-69.572
		c4.49-24.064,8.79-48.215,12.741-72.278c2.042-12.437,4.556-24.795,7.65-37.015c0.797-3.147,9.097-35.599,10.726-35.339
		c19.339,3.077,37.431,9.481,54.272,19.47c1.637,0.97,3.217,2.127,3.787,3.855c0.568,1.729,0.053,3.218-0.475,4.786
		c-5.034,14.957-11.744,28.983-17.111,43.884C228.585,456.543,226.69,461.725,224.736,467.047"/>
	<path fill="#E5D1BD" d="M229.932,638.66c2.936,1.133,6.007,0.936,9.014,1.514c3.059-10.309,5.013-20.494,5.958-31.315
		c-6.081,3.608-8.978-0.494-11.76,8.979C232.243,620.902,231.966,634.201,229.932,638.66L229.932,638.66z"/>
	<path fill="#3B455A" stroke="#000000" stroke-miterlimit="10" d="M242.02,637.07c0.007,5.828,4.595,12.104,7.133,17.346
		c0.299,0.617,0.604,1.26,0.616,1.943c0.018,1.018-0.604,1.922-1.2,2.748c-0.827,1.145-1.726,2.348-3.043,2.86
		c-1.292,0.508-2.745,0.254-4.101-0.045c-2.27-0.498-4.516-1.1-6.731-1.803c-0.551-0.176-1.114-0.363-1.564-0.729
		c-0.533-0.434-0.854-1.065-1.158-1.68c-1.566-3.15-2.898-5.389-2.813-8.897c0.087-3.628,0.545-7.386-0.118-10.978
		c-0.328-1.744-0.762-3.975,0.731-4.932c1.155-0.74,3.269,0.278,4.525,0.483c2.218,0.361,4.268,0.226,6.31,1.39
		c0.416,0.235,0.822,0.521,1.078,0.928C241.945,636.119,242.019,636.584,242.02,637.07L242.02,637.07z"/>
	<path fill="#BCBEC0" stroke="#000000" stroke-miterlimit="10" d="M226.908,452.193c1.296,25.881,4.064,51.664,2.104,77.723
		c-2.42,32.193-0.362,64.963-4,96.85c3.671,1.273,7.437,2.273,11.256,2.988c4.379,0.816,11.438,1.766,14.399-2.371
		c1.513-2.115,1.882-6.205,2.525-8.69c2.063-7.964,3.943-15.972,5.806-23.982c5.27-22.664,11.137-45.438,13.866-68.551
		c2.87-24.313,5.947-48.646,9.332-72.795c1.749-12.481,3.024-25.03,3.704-37.616c0.176-3.242,1.902-36.692,0.269-36.93
		c-19.379-2.813-38.556-2.08-57.606,2.447c-1.852,0.439-3.704,1.074-4.762,2.556c-1.057,1.48-1.008,3.056-0.97,4.71
		c0.357,15.775,2.592,31.166,3.285,46.984C226.357,441.021,226.625,446.531,226.908,452.193"/>
	<path fill="#3B455A" stroke="#000000" stroke-miterlimit="10" d="M499.038,663.537c0.414-1.354,1.115-2.596,2.155-3.504
		c0.548-0.479,1.176-0.854,1.709-1.351c2.507-2.332,2.223-4.563,5.91-4.057c4.196,0.576,8.379,1.35,12.563,2.023
		c0.165,0.024,0.339,0.057,0.469,0.166c0.188,0.157,0.23,0.432,0.262,0.68c0.172,1.449,0.345,2.899,0.518,4.35
		c0.467,3.918,3.979,5.064,6.854,6.615c0.739,0.398,1.508,0.799,2.286,1.213c3.265,1.73,13.156,5.578,8.274,10.688
		c-2.019,2.112-5.514,2.11-8.201,2.385c-2.596,0.264-5.208-0.359-7.767-0.717c-8.208-1.549-15.777-3.979-23.208-7.941
		c-2.661-1.42-2.49-5.438-2.251-8.289C498.674,665.035,498.814,664.27,499.038,663.537L499.038,663.537z"/>
	<polyline fill="#BCBEC0" stroke="#000000" stroke-miterlimit="10" points="510.782,408.722 502.414,441.479 511.692,534.83 
		500.79,659.031 525.304,661.105 557.111,542.297 582.203,412.308 510.782,408.722 	"/>
	<path fill="#3B455A" stroke="#000000" stroke-miterlimit="10" d="M636.07,666.762c-0.062-1.414,0.188-2.817,0.864-4.021
		c0.357-0.633,0.824-1.193,1.164-1.84c1.586-3.035,0.574-5.043,4.224-5.793c4.147-0.855,8.35-1.519,12.518-2.275
		c0.166-0.029,0.342-0.06,0.498,0.002c0.23,0.086,0.361,0.33,0.473,0.555c0.646,1.312,1.291,2.619,1.938,3.929
		c1.744,3.541,5.438,3.452,8.666,3.957c0.828,0.129,1.688,0.252,2.561,0.383c3.652,0.543,14.265,0.879,11.359,7.323
		c-1.201,2.664-4.498,3.826-6.938,4.978c-2.359,1.113-5.029,1.396-7.563,1.912c-8.256,1.271-16.203,1.498-24.529,0.235
		c-2.979-0.452-4.155-4.299-4.883-7.067C636.227,668.297,636.104,667.529,636.07,666.762L636.07,666.762z"/>
	<polygon fill="#BCBEC0" stroke="#000000" stroke-miterlimit="10" points="562.313,422.572 553.301,447.421 605.156,541.184 
		636.223,661.928 660.029,655.725 650.469,533.105 630.854,402.177 	"/>
	<path fill="#7DB5DB" stroke="#000000" stroke-miterlimit="10" d="M482.23,417.552c0.201-6.096,0.563-11.194,0.613-13.021
		c0.457-16.501,2.036-33.1,4.276-49.745c2.022-15.031,4.592-30.102,7.372-45.243c4.361-23.745,8.325-44.667,17.066-67.249
		c3.104-8.02,6.291-16.184,11.65-22.861c4.938-6.153,12.304-10.378,19.701-12.855c3.456-1.157,7.344-2.145,10.802-2.928
		c3.917-0.887,5.883,0.881,9.633,2.487c2.521,1.079,5.479,1.367,8.093,2.283c15.517,5.439,24.378,16.392,29.628,31.942
		c4.225,12.51,8.446,25.021,12.674,37.532c3.469,10.274,6.938,20.551,9.946,30.974c7.875,27.283,12.527,55.399,15.947,83.583
		c1.713,14.129,3.117,28.295,4.472,42.465c0.862,9.057-3.742,5.248-9.183,2.481c-9.371-4.771-18.678-9.8-29.188-11.521
		c-5.104-0.836-10.306-0.877-15.476-0.803c-31.455,0.449-63.021,5.127-92.563,15.938c-1.756,0.644-3.541,1.328-4.976,2.527
		c-1.914,1.602-4.506,5.244-7.271,3.342c-1.719-1.185-2.135-5.221-2.449-7.039C481.739,432.552,481.985,424.919,482.23,417.552"/>
	<path fill="#534741" d="M557.242,141.933c3.98,4.398,6.676,9.895,8.253,15.637c0.419,1.526,0.93,3.283,2.364,3.914
		c1.534,0.677,0.869,3.077,1.569,1.547c0.7-1.53,3.058-6.827,2.83-8.507c-0.521-3.934-1.418-7.821-2.667-11.59
		c-1.087-3.277-2.561-6.625-5.302-8.69c-1.625-1.224-3.576-1.901-5.492-2.552c-2.778-0.944-5.637-1.884-8.557-1.779
		c-5.034,0.182-7.592,2.613-2.552,5.067C551.302,136.736,554.514,138.919,557.242,141.933L557.242,141.933z"/>
	<path fill="#EAC5B0" stroke="#000000" stroke-miterlimit="10" d="M542.313,214.538c6.781-0.875,13.563-1.751,20.348-2.627
		c-0.324-6.057-1.086-12.112-2.277-18.087c5.552-2.321,11.915-5.764,12.483-12.368c0.18-2.08-0.281-4.194-0.738-6.26
		c-1.889-8.543-3.778-17.085-5.668-25.627c-0.653-2.954-1.342-5.995-2.962-8.507c-2.842-4.407-7.927-6.265-12.684-7.08
		c-12.141-2.081-25.021,1.035-33.76,9.896c-2.323,2.358-4.384,5.179-5.257,8.574c-1.347,5.233,0.28,10.948,1.894,16.269
		c1.486,4.911,2.977,9.822,4.464,14.733c1.712,5.649,4.07,12.062,9.147,14.098c2.696,1.081,5.772,0.694,8.256,2.321
		C539.938,202.742,539.815,209.644,542.313,214.538L542.313,214.538z"/>
	<path fill="#3B455A" stroke="#000000" stroke-miterlimit="10" d="M555.205,188.09c-2.541,2.743-5.835,3.607-9.428,3.341
		c-1.526-0.112-1.479-2.685,0.052-2.571c2.976,0.219,5.597-0.399,7.713-2.682C554.606,185.03,556.264,186.948,555.205,188.09
		L555.205,188.09z M573.383,171.333c-0.455-1.561-2.192-6.04-3.868-2.597c-0.437,0.901-0.342,2.011-0.146,3.034
		c0.193,1.022,0.479,2.056,0.383,3.082c-0.221,2.356-2.378,3.894-4.513,4.338c-0.851,0.176-1.742,0.23-2.59-0.032
		c-0.82-0.256-1.552-0.792-2.263-1.32c-1.728-1.282-3.457-2.563-5.185-3.845c-2.97-2.202-7.351,0.035-10.414,1.172
		c-3.531,1.309-6.919,3.253-9.337,6.363c-0.244,0.314-0.479,0.639-0.713,0.963c-0.573,0.792-1.152,1.578-1.893,2.18
		c-2.493,2.03-6.308,1.368-8.875-0.788c-1.177-0.988-2.37-2.333-3.818-2.214c-1.133,0.093-2.02,1.135-2.344,2.307
		c-0.323,1.172-0.189,2.451,0.011,3.678c0.729,4.468,2.366,8.875,5.139,12.356c6.011,7.548,14.125,6.801,21.996,4.815
		c3.11-0.785,6.223-1.57,9.334-2.354c5.688-1.435,11.679-3.048,15.724-7.521c3.568-3.946,4.937-9.588,4.756-15.132
		C574.676,176.956,574.188,174.09,573.383,171.333L573.383,171.333z"/>
	<path fill="#3B455A" stroke="#000000" stroke-miterlimit="10" d="M564.008,124.851c0.079-2.192,0.006-4.391-0.22-6.576
		c-1.778,1.13-3.844,1.792-5.946,1.905c-0.285-1.225-0.567-2.45-0.854-3.675c-0.242-1.018-13.98,1.348-15.104,1.506
		c-10.521,1.483-20.151,2.807-28.202,10.559c-6.875,6.621-10.345,14.967-9.429,24.598c0.875,9.2,6.421,20.218,13.201,26.48
		c-0.573-2.372-3.203-7.678-3.168-10.064c-0.18-2.342,0.09-4.702,0.69-6.959c1.199-4.509,3.711-8.644,6.953-11.923
		c5.17-5.229,11.74-8.864,18.54-11.454c6.231-2.373,13.888-4.995,20.646-4.705c3.248,0.14,3.934,0.804,5.065-2.753
		c0.2-0.627,1.313-7.674,1.06-7.62C566.161,124.396,565.084,124.624,564.008,124.851L564.008,124.851z"/>
	<path fill="#E6E6E7" stroke="#000000" stroke-miterlimit="10" d="M472.551,152.713l6.791,29.345l12.146,7.248l45.383-10.503
		l5.944-13.336c0.498-1.435,2.242-1.839,3.321-0.769l11.368,9.33l45.213-10.463l7.728-11.846l-6.791-29.345L472.551,152.713
		L472.551,152.713z"/>
	<path fill="#587BC9" stroke="#000000" stroke-miterlimit="10" d="M530.669,172.288l-38.721,8.961
		c-1.263,0.292-2.523-0.495-2.815-1.758l-4.986-21.551c-0.293-1.262,0.493-2.523,1.758-2.815l38.721-8.961
		c1.263-0.292,2.523,0.494,2.816,1.757l4.985,21.551C532.719,170.734,531.934,171.996,530.669,172.288L530.669,172.288z"/>
	<path fill="#EAC5B0" stroke="#000000" stroke-miterlimit="10" d="M598.676,156.549l-38.721,8.961
		c-1.263,0.292-2.523-0.495-2.816-1.758l-4.984-21.551c-0.292-1.263,0.495-2.523,1.758-2.816l38.72-8.96
		c1.265-0.293,2.523,0.494,2.816,1.757l4.985,21.551C600.725,154.997,599.938,156.257,598.676,156.549L598.676,156.549z"/>
	<polyline fill="#3B455A" stroke="#000000" stroke-miterlimit="10" points="721.412,411.634 424.697,472.27 465.053,669.75 
		761.768,609.117 721.412,411.634 	"/>
	<polyline fill="#59595B" points="715.229,376.728 417.604,437.548 424.697,472.27 722.326,411.448 715.229,376.728 	"/>
	<polygon fill="#828895" stroke="#000000" stroke-miterlimit="10" points="687.043,418.658 722.326,411.448 715.229,376.728 
		714.668,376.842 	"/>
	<polygon fill="#E6E6E7" points="417.604,437.548 423.605,466.932 446.986,431.542 	"/>
	<polyline fill="#828895" stroke="#000000" stroke-miterlimit="10" points="499.739,420.763 472.114,462.58 526.825,451.398 
		554.451,409.583 499.739,420.763 	"/>
	<polygon fill="#828895" stroke="#000000" stroke-miterlimit="10" points="607.203,398.802 579.578,440.618 634.289,429.438 
		661.916,387.623 	"/>
	<polyline fill="#3B455A" stroke="#000000" stroke-miterlimit="10" points="446.986,431.542 423.605,466.932 424.697,472.27 
		472.114,462.58 499.739,420.763 446.986,431.542 	"/>
	<polygon fill="#3B455A" stroke="#000000" stroke-miterlimit="10" points="554.451,409.583 526.825,451.398 579.578,440.618 
		607.203,398.802 	"/>
	<polygon fill="#3B455A" stroke="#000000" stroke-miterlimit="10" points="661.916,387.623 634.289,429.438 687.043,418.658 
		714.668,376.842 	"/>
	<polygon fill="#E6E6E7" points="450.339,422.073 417.781,437.46 402.638,405.421 403.156,405.175 	"/>
	<polygon fill="#828895" stroke="#000000" stroke-miterlimit="10" points="677.289,275.62 690.104,302.734 650.174,288.435 	"/>
	<polygon fill="#828895" stroke="#000000" stroke-miterlimit="10" points="601.492,311.44 648.676,328.338 598.188,352.199 
		551.005,335.301 	"/>
	<polygon fill="#828895" stroke="#000000" stroke-miterlimit="10" points="502.325,358.309 549.507,375.206 499.021,399.066 
		451.837,382.168 	"/>
	<polygon fill="#3B455A" stroke="#000000" stroke-miterlimit="10" points="650.174,288.435 690.104,302.734 692.432,307.66 
		648.676,328.338 601.492,311.44 	"/>
	<polygon fill="#3B455A" stroke="#000000" stroke-miterlimit="10" points="551.005,335.301 598.188,352.199 549.507,375.206 
		502.325,358.309 	"/>
	<polyline fill="#3B455A" stroke="#000000" stroke-miterlimit="10" points="451.837,382.168 499.021,399.066 450.339,422.073 
		403.156,405.175 451.837,382.168 	"/>
	<polyline fill="#3B455A" stroke="#000000" stroke-miterlimit="10" points="424.697,472.27 402.655,405.47 435.208,390.072 
		496.419,457.613 424.697,472.27 	"/>
	<polyline fill="#262C3A" stroke="#000000" stroke-miterlimit="10" points="459.771,417.177 435.208,390.072 470.701,412.45 
		459.771,417.177 	"/>
	<polyline fill="#3A393A" points="496.419,457.613 496.419,457.613 502.115,456.449 498.771,457.133 496.419,457.613 	"/>
	<polyline fill="#828895" stroke="#000000" stroke-miterlimit="10" points="496.419,457.613 484.259,444.194 486.713,440.48 
		506.834,455.484 502.115,456.449 496.419,457.611 	"/>
	<polyline fill="#262C3A" stroke="#000000" stroke-miterlimit="10" points="484.259,444.194 468.76,427.093 486.713,440.48 
		484.259,444.194 	"/>
	<polyline fill="#262C3A" stroke="#000000" stroke-miterlimit="10" points="496.419,457.613 468.76,427.093 484.259,444.194 
		496.419,457.613 	"/>
	<path fill="#A6A8AA" stroke="#000000" stroke-miterlimit="10" d="M432.41,410.601c0.602,2.58-1.003,5.16-3.584,5.764
		c-2.58,0.601-5.16-1.003-5.762-3.584c-0.603-2.581,1.003-5.161,3.584-5.764C429.229,406.415,431.809,408.021,432.41,410.601
		L432.41,410.601z"/>
	<path fill="#A6A8AA" stroke="#000000" stroke-miterlimit="10" d="M437.401,453.156c0.602,2.582-1.003,5.16-3.583,5.764
		c-2.581,0.6-5.16-1.004-5.764-3.584c-0.601-2.583,1.003-5.161,3.584-5.763S436.8,450.575,437.401,453.156L437.401,453.156z"/>
	<path fill="#A6A8AA" stroke="#000000" stroke-miterlimit="10" d="M471.861,445.126c0.602,2.58-1.003,5.16-3.583,5.76
		c-2.581,0.604-5.161-1.002-5.764-3.581c-0.601-2.582,1.004-5.162,3.584-5.763C468.68,440.94,471.26,442.544,471.861,445.126
		L471.861,445.126z"/>
	<polygon fill="#E6E6E7" points="739.975,571.113 470.19,626.244 469.78,624.234 739.563,569.104 	"/>
	<polygon fill="#E6E6E7" points="557.561,609.787 564.258,642.557 562.041,643.01 555.344,610.24 	"/>
	<polygon fill="#E6E6E7" points="655.367,589.801 662.063,622.572 659.848,623.025 653.15,590.254 	"/>
	<polygon fill="#E6E6E7" points="714.252,445.245 444.469,500.377 444.016,498.158 713.799,443.028 	"/>
	<path fill="#587BC9" stroke="#000000" stroke-miterlimit="10" d="M749.061,225.987l-118.202-41.745
		c-1.146-0.405-1.755-1.674-1.351-2.82l43.104-122.044c0.403-1.146,1.674-1.752,2.817-1.348l118.205,41.746
		c1.146,0.404,1.752,1.673,1.351,2.818L751.881,224.64C751.475,225.786,750.207,226.393,749.061,225.987"/>
	<path fill="#E5E5E5" d="M753.529,219.975l19.58-55.445l-19.558,55.372C753.545,219.925,753.537,219.949,753.529,219.975"/>
	<path fill="#4F6EB5" stroke="#000000" stroke-miterlimit="10" d="M746.678,224.699c-0.815,0-1.647-0.136-2.465-0.424
		L638.895,187.08c20.992,5.179,47.394,12.681,71.875,12.681c27.921,0,53.349-9.764,65.392-43.865l-3.049,8.634l-19.582,55.445
		C752.465,222.882,749.666,224.699,746.678,224.699"/>
	<path fill="#FFFFFF" stroke="#000000" stroke-miterlimit="10" d="M674.32,69.09l-6.91,19.566
		c3.459-8.123,13.908-24.768,39.315-15.794l-23.065-8.146C679.85,63.37,675.645,65.337,674.32,69.09L674.32,69.09z"/>
	<polygon fill="#FFFFFF" stroke="#000000" stroke-miterlimit="10" points="746.336,154.049 695.326,95.245 669.709,167.777 	"/>
	<polygon fill="#7B4F34" stroke="#000000" stroke-miterlimit="10" points="817.225,215.319 820.768,206.458 828.545,203.165 
		828.709,201.181 826.266,200.921 831.965,196.36 833.203,190.61 827.928,184.928 819.949,183.691 814.75,189.596 812.879,198.697 
		807.502,210.626 	"/>
	<path fill="#305399" stroke="#000000" stroke-miterlimit="10" d="M823.195,215.144c0.285,0.53,0.477,1.055,0.551,1.571
		c0.521,3.577-10.684,18.568-12.498,22.851c-3.82,9.003-6.742,18.385-8.697,27.968c13.64-1.077,27.275-2.153,40.91-3.229
		c-8.729,27.902-20.863,54.737-36.047,79.72c-0.604,0.996-1.334,2.076-2.473,2.325c-1.089,0.237-2.16-0.37-3.103-0.964
		c-20.041-12.63-37.469-29.386-50.877-48.915c-11.889-17.316,15.76-41.936,25.943-55.738c9.539-12.927,19.075-25.854,28.614-38.781
		C809.615,204.901,820.539,210.23,823.195,215.144L823.195,215.144z"/>
	<path fill="#7B4F34" stroke="#000000" stroke-miterlimit="10" d="M844.012,201.058c0.668-2.418,1.523-4.863,3.177-6.752
		c0.448-0.516,0.963-0.97,1.389-1.49c14.871-18.193,46.485-14.508,52.053,14.936c2.994,15.84-6.963,32.843-21.336,38.315
		c0.562,4.187-0.1,9.275-0.018,12.462c0.016,0.659,0.014,1.381-0.39,1.891c-0.354,0.454-0.938,0.624-1.485,0.748
		c-5.166,1.169-10.732,0.313-15.359-2.364c-0.338-0.196-0.684-0.412-0.904-0.746c-0.266-0.406-0.303-0.924-0.33-1.415
		c-0.178-3.439-0.084-6.89,0.25-10.315c-8.547-2.786-14.764-10.834-17.381-19.54C841.172,218.463,841.691,209.434,844.012,201.058
		L844.012,201.058z"/>
	<path fill="#3B455A" stroke="#000000" stroke-miterlimit="10" d="M814.941,641.615l-7.005,7.297
		c-4.514,4.701-2.979,12.695,3.123,14.975c3.601,1.34,8.535,0.832,15.125-4.229l14.74-18.74l-2.871-5.643l-16.567-1.58
		L814.941,641.615L814.941,641.615z"/>
	<path fill="#3B455A" stroke="#000000" stroke-miterlimit="10" d="M830.422,436.474l-46.065,104.653l33.272,96.383l22.787-1.729
		l6.424-74.394c0,0,69.412-97.317,64.713-100.196C906.855,458.313,830.422,436.474,830.422,436.474"/>
	<path fill="#3B455A" stroke="#000000" stroke-miterlimit="10" d="M938.988,658.318l-4.51,9.053
		c-2.904,5.834,0.94,13.01,7.446,13.359c3.834,0.206,8.396-1.753,13.177-8.548l8.479-22.28l-4.424-4.531l-16.289,3.434
		L938.988,658.318L938.988,658.318z"/>
	<path fill="#3B455A" stroke="#000000" stroke-miterlimit="10" d="M864.588,473.762c-6.184,12.588,8.979,44.506,12.6,56.922
		c4.06,13.916,6.097,36.24,14.132,48.447l49.012,74.465l21.233-8.444c-4.657-21.154-12.317-43.328-14.938-64.679
		c-3.791-30.891,19.838-63.6,26.356-94.764c1.9-9.084,3.216-18.529,1.273-27.604c-1.939-9.076-7.684-17.794-16.352-21.108
		c-13.275-5.078-27.451,3.525-39.476,11.105c-14.586,9.199-30.112,17.535-47.067,20.689
		C868.018,469.414,865.854,471.182,864.588,473.762"/>
	<path fill="#305399" stroke="#000000" stroke-miterlimit="10" d="M930.066,270.18c22.639,18.524,31.321,49.949,36.771,79.482
		c4.83,26.171,8.183,52.628,10.029,79.183c0.657,9.441,0.905,19.732-4.359,27.341c-3.467,5.011-8.852,8.097-14.141,10.83
		c-39.502,20.431-83.994,30.238-128.172,28.259c-4.912-0.224-10.091-0.679-14.17-3.607c-3.054-2.191-5.156-5.545-7.021-8.9
		c-18.604-33.497-20.397-74.212-17.928-112.717c1.778-27.733,5.826-56.253,19.84-79.682
		C836.523,247.555,892.334,239.302,930.066,270.18L930.066,270.18z"/>
	<path fill="#7DB5DB" stroke="#000000" stroke-miterlimit="10" d="M953.973,388.122l0.576,6.089
		c0.127,1.339-0.645,2.602-1.896,3.104l-90.396,36.334c-1.893,0.76-3.983-0.51-4.176-2.531l-0.6-6.354
		c-0.127-1.341,0.646-2.605,1.901-3.105l90.42-36.068C951.697,384.833,953.783,386.102,953.973,388.122 M973.168,345.008
		c-0.898-0.544-2.004-0.634-2.977-0.243c0,0-133.47,53.242-136.604,54.443c-0.521,0.199-1.086,0.313-1.541,0.668
		c-0.891,0.697-1.365,1.798-1.258,2.921l14.01,148.159c0.172,1.826-1.303,3.358-3.143,3.313c-8.154-0.19-16.845,1.871-24.785,5.992
		c-20.666,10.726-30.783,32.275-22.551,48.041c4.073,7.803,11.889,12.998,22.002,14.629c3.588,0.578,7.313,0.681,11.086,0.324
		c6.479-0.613,13.092-2.582,19.322-5.813c16.161-8.39,26.327-23.576,25.377-37.863c0-0.105-0.005-0.215-0.019-0.322l-11.072-117.096
		c-0.125-1.342,0.648-2.605,1.904-3.107l90.418-36.067c1.893-0.754,3.979,0.515,4.168,2.531l7.988,84.45
		c0.172,1.824-1.305,3.355-3.146,3.313c-8.153-0.191-16.846,1.871-24.783,5.992c-9.854,5.112-17.649,12.813-21.952,21.682
		c-4.459,9.195-4.673,18.557-0.601,26.359c4.076,7.801,11.892,12.995,22.004,14.627c9.759,1.573,20.558-0.377,30.406-5.49
		c16.371-8.496,26.541-23.869,25.35-38.291l-0.014-0.162l-18.012-190.47C974.652,346.487,974.063,345.552,973.168,345.008"/>
	<path fill="#77ABCF" stroke="#000000" stroke-miterlimit="10" d="M823.066,623.465c-2.285,0-4.541-0.176-6.742-0.531l0,0
		c-4.879-0.784-9.215-2.409-12.863-4.748c19.082-7.135,48.377-25.356,65.541-71.604l3.09,32.678
		c0.014,0.107,0.019,0.217,0.019,0.322c0.041,0.613,0.061,1.229,0.061,1.848c0.006,13.73-9.969,27.984-25.438,36.017
		c-6.23,3.231-12.841,5.201-19.322,5.813C825.953,623.395,824.504,623.465,823.066,623.465"/>
	<polyline fill="#F1F1F1" points="992.762,537.998 990.305,512.014 990.305,512.014 992.762,537.998 	"/>
	<path fill="#394256" d="M943.768,582.473c-2.287,0-4.547-0.174-6.748-0.528c-0.395-0.063-0.78-0.134-1.168-0.207
		c0.388,0.073,0.773,0.145,1.168,0.207C939.221,582.299,941.479,582.473,943.768,582.473c1.027,0,2.064-0.032,3.104-0.104l0,0
		C945.832,582.439,944.795,582.473,943.768,582.473 M935.84,581.734c-0.014-0.002-0.025-0.006-0.041-0.009
		C935.813,581.729,935.828,581.732,935.84,581.734 M935.779,581.723c-0.01-0.002-0.021-0.004-0.031-0.006
		C935.76,581.719,935.768,581.721,935.779,581.723 M935.717,581.711c-0.006-0.002-0.012-0.004-0.018-0.006
		C935.705,581.709,935.711,581.709,935.717,581.711 M935.654,581.699c-0.002-0.002-0.004-0.002-0.008-0.002
		C935.65,581.697,935.652,581.697,935.654,581.699"/>
	<path fill="#77ABCF" stroke="#000000" stroke-miterlimit="10" d="M943.768,582.473c-2.287,0-4.547-0.174-6.748-0.528
		c-0.395-0.063-0.78-0.134-1.168-0.207c-0.004,0-0.008,0-0.012-0.002c-0.012-0.002-0.025-0.006-0.041-0.009
		c-0.006-0.002-0.014-0.002-0.02-0.004c-0.013-0.002-0.021-0.004-0.031-0.006s-0.021-0.004-0.031-0.006
		c-0.006-0.002-0.012-0.004-0.018-0.006c-0.019-0.002-0.031-0.004-0.045-0.008c-0.002,0-0.004,0-0.008-0.002
		c-4.563-0.898-8.617-2.551-12.035-4.854c17.594-5.53,47.729-21.147,66.69-64.828l2.457,25.984l0.015,0.162
		c0.063,0.76,0.094,1.522,0.094,2.287c0.008,13.737-9.937,27.955-25.441,36.004c-6.627,3.438-13.678,5.447-20.555,5.916
		C945.832,582.439,944.795,582.473,943.768,582.473"/>
	<path fill="#3B455A" stroke="#000000" stroke-miterlimit="10" d="M848.188,229.411c0.164,0.748,0.396,1.468,0.812,2.112
		c1.842,2.85,5.984,2.617,9.363,2.311c5.063-0.46,10.184-0.33,15.221,0.386c1.975,0.28,3.961,0.652,5.951,0.516
		c4.43-0.303,14.209-12.86,16.494-7.956c0.483,1.046,0.159,2.271-0.173,3.376c-1.104,3.692-2.307,7.543-5.021,10.278
		c-2.978,2.996-7.279,4.163-11.369,5.212c-2.699,0.692-5.438,1.389-8.223,1.336c-2.484-0.048-4.912-0.691-7.314-1.331
		c-9.174-2.444-20.354-6.47-22.19-17.517c-0.334-2.013,0.35-4.667,2.375-4.921c1.735-0.217,3.078,1.575,3.516,3.271
		C847.873,227.438,847.975,228.448,848.188,229.411L848.188,229.411z"/>
	<polygon fill="#7B4F34" stroke="#000000" stroke-miterlimit="10" points="909.826,394.221 908.098,403.607 901.123,408.37 
		901.354,410.347 903.799,410.118 899.111,415.714 899.031,421.595 905.322,426.126 913.389,425.765 917.322,418.952 
		917.363,409.659 920.283,396.904 	"/>
	<path fill="#305399" stroke="#000000" stroke-miterlimit="10" d="M903.818,395.605c-0.226-0.139-0.445-0.279-0.666-0.422
		c3.467-13.539,18.905-37.015,16.045-50.086c-1.513-6.905-10.738-16.253-14.67-22.254c-5.59-8.528-11.179-17.057-16.769-25.586
		c-1.567-2.395-3.17-4.861-3.774-7.66c-0.775-3.588,0.172-7.334,1.557-10.734c2.365-5.813,6.221-11.254,11.742-14.235
		c8.473-4.574,25.037-3.792,32.639,2.079c5.271,4.071,8.912,9.85,12.344,15.558c4.678,7.782,9.176,15.67,13.49,23.657
		c4.602,8.514,9.096,17.536,9.227,27.212c0.089,6.475-1.797,12.793-3.664,18.992c-4.364,14.485-23.93,58.072-45.305,49.297
		C911.861,399.766,907.604,397.945,903.818,395.605L903.818,395.605z"/>
	<path fill="#305399" stroke="#000000" stroke-miterlimit="10" d="M912.184,206.476c-0.528-3.641-2.037-7.294-4.787-9.615
		c-0.293-0.247-0.573-0.461-0.854-0.673c0.467-9.232-2.408-18.48-7.916-25.908c-8.348-11.262-22.34-18.118-37.518-15.537
		c-18.054,3.07-25.048,23.431-25.189,40.398c-0.936,0.531-1.729,1.296-2.391,2.234c-3.002,4.248-3.445,11.878-3.476,15.803
		c-0.021,3.05,0.193,6.226,1.681,8.891c1.854,3.336,8.118,6.654,11.145,2.499c1.441-1.979,0.65-6.398,0.547-8.787
		c-0.137-3.175-0.42-6.342-0.578-9.515c-0.039-0.78,0.015-1.7,0.082-2.678c0.463-0.696,0.722-1.56,0.601-2.578
		c-1.197-9.94,0.256-21.773,6.481-29.827c5.937-7.673,9.431-9.495,16.254-9.586c17.923-0.24,33.861,13.231,33.563,31.678
		c-0.004,0.233,0.002,0.596,0.02,1.04c-5.627,1.923-6.983,14.358-6.213,20.493c0.392,3.092,1.256,6.24,3.183,8.647
		c1.926,2.406,5.088,3.902,7.896,3.057c2.781-0.835,4.564-3.639,5.691-6.442C912.109,215.832,912.855,211.09,912.184,206.476
		L912.184,206.476z"/>
	<path fill="#587BC9" stroke="#000000" stroke-miterlimit="10" d="M216.024,244.502c-0.315,0.106-0.628,0.218-0.94,0.337
		c-5.202,1.974-9.627,5.527-13.956,9.024c-6.502,5.251-9.704,7.554-12.215,15.332c-2.343,7.254-3.809,14.915-5.243,22.39
		c-7.363,38.378-8.786,76.595-14.07,115.262c-1.439,10.524-2.55,22.897,5.234,30.127c13.812-10.748,31.172-11.367,47.923-11.384
		c11.764-0.012,23.265-3.818,35.056-2.508c11.269,1.254,21.112-1.563,32.548-0.817c2.757,0.182,6.27,0.149,7.357-2.392
		c-3.957-11.862-3.889-24.621-4.785-37.095c-2.317-32.267-13.006-63.229-17.32-95.276c-1.466-10.893-2.248-28.974-10.684-37.219
		c-9.168-8.961-30.078-9.143-41.86-7.39C220.684,243.25,218.307,243.729,216.024,244.502L216.024,244.502z"/>
	<path fill="#EAC5B0" stroke="#000000" stroke-miterlimit="10" d="M180.398,398.624c1.693-8.043-3.455-11.953-8.171-18.809
		c-2.626-3.82-3.674-14.98-9.979-14.112c-1.219,0.168-2.468,0.346-3.553,0.928c-0.887,0.477-1.615,1.197-2.295,1.94
		c-0.529,0.578-1.507,1.37-1.476,2.134c0.033,0.802,1.367,2.321,1.787,3.036c5.453,9.265,7.785,20.251,5.235,31.091
		c-0.296,1.258-0.625,2.604-0.167,3.813c0.564,1.487,2.175,2.321,3.735,2.643c5.288,1.077,10.765-2.529,13.052-7.419
		C179.475,401.927,180.067,400.195,180.398,398.624L180.398,398.624z"/>
	<path fill="#587BC9" stroke="#000000" stroke-miterlimit="10" d="M132.912,325.413c7.315,20.134,20.71,55.077,24.896,53.881
		c6.617-1.899,12.85-5.122,18.224-9.425c-5.274-14.132-12.309-28.881-12.783-44.219c-0.57-18.436,22.86-17.899,37.362-23.918
		c4.452-1.848,8.999-3.93,12.17-7.56c3.704-4.24,5.042-10.048,5.526-15.657c0.648-7.493,1.694-23.426-6.441-27.477
		c-12.495-6.222-31.626,12.387-40.916,18.822c-15.22,10.545-29.217,22.855-41.604,36.619c-0.74,0.821-1.506,1.715-1.666,2.809
		c-0.128,0.877,0.154,1.757,0.437,2.598C128.522,313.091,130.341,318.337,132.912,325.413L132.912,325.413z"/>
	<path fill="#EAC5B0" stroke="#000000" stroke-miterlimit="10" d="M224.773,243.96c0.194,0.376,0.453,0.738,0.8,1.08
		c1.369,1.35,3.266,2.116,5.149,2.386c2.481,0.355,5.004-0.057,7.466-0.527c3.327-0.635,3.209-2.582,3.691-5.602
		c0.264-1.65,0.429-3.313,0.553-4.979c0.068-0.913-0.285-4.182,0.297-4.822c0.395-0.434,2.002-0.288,2.707-0.656
		c1.117-0.583,2.05-1.657,2.721-2.7c1.082-1.683,1.677-3.624,2.26-5.537c1.014-3.329,2.029-6.658,3.043-9.987
		c1.036-3.401,2.078-6.831,2.411-10.371c0.502-5.336-0.361-12.869-4.388-16.77c-3.674-3.559-9.034-4.805-13.95-5.434
		c-6.509-0.831-13.256,0.36-18.878,3.815c-2.271,1.395-4.423,3.205-5.763,5.692c-2.067,3.835-1.91,8.623-1.687,13.099
		c0.205,4.132,0.41,8.264,0.615,12.396c0.236,4.752,0.827,10.229,4.388,12.805c1.891,1.368,4.363,1.661,5.981,3.416
		c2.027,2.197,1.895,5.495,1.98,8.282C224.218,241.139,224.098,242.646,224.773,243.96L224.773,243.96z"/>
	<path fill="#3B455A" stroke="#000000" stroke-miterlimit="10" d="M245.378,190.547c0.224,0.388,0.412,0.79,0.556,1.208
		c0.759,2.19,0.246,4.663,0.987,6.86c1.175,3.482,5.239,5.575,5.851,9.2c0.501,2.963-1.524,5.781-1.695,8.782
		c-0.187,3.278,1.913,6.382,1.587,9.618c-0.283,2.811-2.066,6.761-3.745,9.014c0.52-0.698,5.227-0.449,6.447-1.195
		c1.87-1.142,2.084-1.862,2.64-3.811c0.553-1.935,0.124-3.843,0.986-5.825c1.056-2.432,3.227-4.217,3.987-6.811
		c1.037-3.539-0.846-7.273-0.699-10.958c0.222-5.578,5.043-10.833,3.294-16.134c-1.027-3.11-4.046-5.098-5.744-7.898
		c-1.29-2.127-1.766-4.633-2.661-6.953c-0.894-2.321-2.432-4.642-4.817-5.346c-1.325-0.391-2.75-0.23-4.108-0.483
		c-2.348-0.437-4.299-2.057-6.561-2.823c-3.236-1.095-8.946,2.178-10.834,4.921c-1.875,2.722-0.929,5.036,0.987,7.443
		C235.029,183.365,242.743,185.989,245.378,190.547L245.378,190.547z"/>
	<path fill="#3B455A" stroke="#000000" stroke-miterlimit="10" d="M201.796,174.071c-1.94,1.423-4.334,2.451-6.105,4.114
		c-3.453,3.241-4.109,8.425-4.233,13.16c-0.112,4.215-1.956,7.961-1.499,12.354c0.306,2.951,1.561,5.935,3.962,7.677
		c2.99,2.17,7.684,2.525,9.018,5.97c1.45,3.743-2.427,8.456-0.074,11.706c1.299,1.794,3.843,2.057,5.7,3.262
		c2.072,1.344,3.137,3.745,4.403,5.867c1.265,2.121,3.166,4.246,5.636,4.299c0.099-3.756,0.21-6.732-1.394-10.168
		c-0.935-2.001-3.687-5.693-1.573-7.86c1.333-1.801,4.48-2.387,4.562-4.626c0.038-1.052-0.696-1.947-1.275-2.826
		c-2.24-3.4-2.468-7.931-0.949-11.71c1.519-3.779,4.65-6.797,8.316-8.573c4.295-2.08,3.604-3.13,4.852-7.242
		c1.149-3.785,3.297-4.673,6.704-6.053c3.059-1.238,4.043-2.01,5.172-4.873c0.825-2.095,1.843-4.605,0.645-6.943
		c-0.953-1.859-2.667-3.188-4.328-4.454c-3.468-2.644-7.366-5.425-11.717-5.112c-2.416,0.174-4.689,1.31-7.108,1.447
		c-1.613,0.091-3.217-0.266-4.832-0.32c-2.754-0.092-5.657,0.745-7.886,2.385c-2.249,1.653-2.186,3.384-3.435,5.73
		C203.745,172.432,202.836,173.309,201.796,174.071L201.796,174.071z"/>
	<path fill="#EAC5B0" stroke="#000000" stroke-miterlimit="10" d="M322.071,187.601c-0.511,0.011-1.021,0.03-1.531,0.056
		c-0.306,0.015-0.622,0.035-0.897,0.168c-0.27,0.131-0.48,0.357-0.679,0.582c-2.247,2.538-3.704,5.349-5.197,8.354
		c-0.557,1.12-0.664,1.194-0.125,2.382c0.599,1.319,1.352,2.6,2.065,3.861c0.348,1.942,0.777,3.872,0.959,5.838
		c0.462,4.975-3.847,15.973,1.94,18.53c1.12,0.495,2.269,0.997,3.467,1.032c0.979,0.029,1.937-0.257,2.863-0.588
		c0.722-0.258,1.926-0.476,2.256-1.207c0.346-0.767-0.085-2.901-0.111-3.788c-0.073-2.536-0.147-5.072-0.221-7.608
		c-0.071-2.487,0.054-5.42,1.924-6.758c0.409-0.292,0.88-0.484,1.248-0.836c0.415-0.397,0.664-0.963,0.887-1.52
		c0.818-2.041,1.508-4.21,1.872-6.419c0.333-2.017-0.809-3.057-1.815-4.631c-1.051-1.642-1.072-3.669-1.962-5.374
		c-0.895-1.715-2.489-2.019-4.351-2.068C323.799,187.583,322.935,187.582,322.071,187.601L322.071,187.601z"/>
	<path fill="#3B455A" stroke="#000000" stroke-miterlimit="10" d="M426.702,221.843l-29.924,27.643
		c-8.334,7.699-22.454,6.193-31.875-3.453L237.191,115.248c-4.508-4.617-5.087-11.338-1.268-14.866l56.098-51.822
		c3.819-3.528,10.443-2.392,14.653,2.502l119.243,138.61C434.712,199.896,435.035,214.146,426.702,221.843L426.702,221.843z"/>
	<polygon fill="#E6E6E6" stroke="#000000" stroke-miterlimit="10" points="284.8,121.692 272.858,132.648 268.31,127.652 
		280.251,116.695 	"/>
	<polygon fill="#E6E6E6" stroke="#000000" stroke-miterlimit="10" points="302.704,105.267 290.762,116.223 286.213,111.227 
		298.155,100.271 	"/>
	<polygon fill="#E6E6E6" stroke="#000000" stroke-miterlimit="10" points="320.607,88.84 308.666,99.796 304.116,94.8 
		316.058,83.844 	"/>
	<polygon fill="#E6E6E6" stroke="#000000" stroke-miterlimit="10" points="297.671,135.83 285.73,146.786 281.18,141.789 
		293.122,130.833 	"/>
	<polygon fill="#E6E6E6" stroke="#000000" stroke-miterlimit="10" points="315.575,119.403 303.633,130.359 299.084,125.363 
		311.026,114.406 	"/>
	<polygon fill="#E6E6E6" stroke="#000000" stroke-miterlimit="10" points="333.479,102.979 321.537,113.935 316.987,108.938 
		328.929,97.981 	"/>
	<polygon fill="#E6E6E6" stroke="#000000" stroke-miterlimit="10" points="310.543,149.965 298.601,160.921 294.051,155.925 
		305.993,144.969 	"/>
	<polygon fill="#E6E6E6" stroke="#000000" stroke-miterlimit="10" points="328.446,133.541 316.504,144.497 311.955,139.5 
		323.897,128.543 	"/>
	<polygon fill="#E6E6E6" stroke="#000000" stroke-miterlimit="10" points="346.349,117.114 334.407,128.07 329.858,123.074 
		341.8,112.119 	"/>
	<path fill="#E6E6E6" stroke="#000000" stroke-miterlimit="10" d="M374.584,173.494l7.334-1.045
		c-0.772-5.336-3.175-10.308-6.873-14.227c-3.698-3.919-8.514-6.594-13.78-7.656l-1.298,6.602
		C367.601,158.862,373.674,165.266,374.584,173.494L374.584,173.494z"/>
	<path fill="#E6E6E6" stroke="#000000" stroke-miterlimit="10" d="M359.015,194.027l1.212,7.837
		c5.303-0.81,10.223-3.252,14.076-6.99c3.854-3.739,6.454-8.591,7.442-13.885l-7.483-1.433
		C372.667,186.913,366.736,192.788,359.015,194.027L359.015,194.027z"/>
	<path fill="#E6E6E6" stroke="#000000" stroke-miterlimit="10" d="M337.757,179.614l-6.991,1.326
		c1.014,5.296,3.639,10.154,7.512,13.899c3.872,3.746,8.804,6.198,14.111,7.017l1.161-7.754
		C345.888,193.067,339.501,187.339,337.757,179.614L337.757,179.614z"/>
	<path fill="#E6E6E6" stroke="#000000" stroke-miterlimit="10" d="M352.612,157.03l-1.242-6.528
		c-5.272,0.994-10.103,3.608-13.824,7.479c-3.721,3.872-6.152,8.812-6.955,14.138l6.838,1.064
		C338.392,165.146,344.467,158.498,352.612,157.03L352.612,157.03z"/>
	<path fill="#E6E6E6" stroke="#000000" stroke-miterlimit="10" d="M356.726,164.896c6.168,0.289,10.951,5.543,10.685,11.736
		c-0.267,6.192-5.483,10.977-11.65,10.688c-6.168-0.289-10.952-5.543-10.685-11.736
		C345.342,169.392,350.558,164.606,356.726,164.896L356.726,164.896z"/>
	<polygon fill="#7DB5DB" stroke="#000000" stroke-miterlimit="10" points="373.647,220.509 363.579,229.748 361.436,227.394 
		371.504,218.156 	"/>
	<polygon fill="#7DB5DB" stroke="#000000" stroke-miterlimit="10" points="391.449,203.431 381.381,212.668 379.238,210.314 
		389.306,201.078 	"/>
	<polygon fill="#7DB5DB" stroke="#000000" stroke-miterlimit="10" points="409.251,186.353 399.184,195.589 397.04,193.235 
		407.108,183.999 	"/>
	<path fill="#7DB5DB" stroke="#000000" stroke-miterlimit="10" d="M302.942,66.438c2.384,2.619,2.21,6.675-0.39,9.06
		c-2.599,2.385-6.639,2.195-9.023-0.423c-2.384-2.619-2.21-6.675,0.39-9.06C296.518,63.63,300.558,63.82,302.942,66.438
		L302.942,66.438z"/>
	<path fill="#D7E8F4" stroke="#000000" stroke-miterlimit="10" d="M348.993,460.77c38.728-5.166,39.035,45.918,42.766,72.414
		c1.28,9.095,3.492,18.83,3.438,28.017c-0.044,7.369-1.963,14.533-1.373,22.043c0.453,5.771,3.002,12,8.495,14.358
		c2.764,1.188,5.938,1.242,8.708,2.418c2.77,1.175,5.142,4.313,3.747,6.896c-0.662,1.229-1.988,1.969-3.245,2.645
		c-6.852,3.677-13.701,7.351-20.551,11.023c-5.232,2.807-10.494,5.627-16.132,7.574c-7.988,2.762-16.529,3.701-25.006,4.115
		c-21.895,1.069-43.965-1.259-65.099-6.869c-7.91-2.101-20.895-7.576-21.934-17.334c-0.348-3.265,0.691-6.494,1.714-9.599
		c8.446-25.596,16.891-51.192,25.336-76.789c7.09-21.489,10.451-52.514,35.557-60.491c4.534-1.438,8.756-1.011,13.132-0.58
		C341.872,460.938,345.286,461.264,348.993,460.77"/>
	<path fill="#3B455A" stroke="#000000" stroke-miterlimit="10" d="M353.114,687.275c6.837,2.877,13.827,5.387,20.932,7.516
		c3.759,1.129,7.625,2.156,11.547,1.992c9.18-0.387,15.782-10.639,7.257-17.273c-3.732-2.908-7.921-5.231-12.359-6.869
		c-6.547-2.416-2.714,2.738-4.698,7.117c-2.286,5.043-4.083,4.93-8.809,2.816c-6.088-2.724-10.063-5.959-17.048-5.531
		c-1.929,0.117-4.165,0.674-4.911,2.455c-0.566,1.354-0.001,2.969,1.005,4.033c1.006,1.065,2.377,1.697,3.718,2.291
		C350.865,686.316,351.988,686.801,353.114,687.275L353.114,687.275z"/>
	<path fill="#EACDB0" stroke="#000000" stroke-miterlimit="10" d="M370.238,684.045c1.974,0.105,3.947,0.211,5.92,0.316
		c2.144,0.114,4.536,0.146,6.133-1.289c1.948-1.752,1.729-5.062,0.152-7.154c-1.577-2.094-4.119-3.211-6.615-4.01
		c-6.025-1.933-12.394-2.525-18.716-2.773c-0.633-0.022-1.289-0.043-1.877,0.193c-1.024,0.412-1.607,1.494-1.952,2.541
		C349.697,682.762,362.57,683.635,370.238,684.045L370.238,684.045z"/>
	<path fill="#3B455A" stroke="#000000" stroke-miterlimit="10" d="M407.763,642.344c-1.438-12.438-7.674-22.313-19.191-27.723
		c-9.343-4.385-19.845-5.416-30.082-6.73c-22.798-2.926-44.563-5.85-67.583-4.942c-18.408,0.725-29.754,16.428-38.369,31.918
		c-5.43,9.764-3.922,14.342,2.913,22.52c6.302,7.537,13.952,13.949,22.497,18.808c16.917,9.612,42.907,7.237,61.539,5.159
		c17.586-1.959,34.799-7.213,50.484-15.403C400.064,660.674,409.164,654.457,407.763,642.344"/>
	<path fill="#EACDB0" stroke="#000000" stroke-miterlimit="10" d="M294.297,702.586c-0.108,0.877-0.207,1.813,0.171,2.611
		c0.275,0.58,0.777,1.026,1.32,1.371c4.07,2.596,9.543-0.199,12.658-3.886c3.116-3.688,5.225-8.35,9.2-11.086
		c9.097-6.27,0.77-17.741-8.738-15.11C297.81,679.559,295.481,692.893,294.297,702.586"/>
	<path fill="#3B455A" d="M416.884,643.506c7.856-5.771,15.733-12.313,18.604-22.037c2.869-9.725-1.182-23.455-11.315-29.063
		c-12.355-6.834-24.495,1.565-33.307,9.496c-18.05,16.225-37.721,30.569-56.953,45.409c-6.5,5.017-29.049,23.484-29.049,23.484
		c-0.62,2.603,11.5,26.148,14.713,25.287C354.659,686.809,388.783,664.156,416.884,643.506"/>
	<path fill="#3B455A" stroke="#000000" stroke-miterlimit="10" d="M240.306,654.691c-7.692-3.744-15.428-8.257-18.47-17.246
		c-3.041-8.994,0.416-23.791,9.944-32.031c11.616-10.047,23.487-4.779,32.16,0.877c17.764,11.568,37.022,20.836,55.876,30.713
		c6.373,3.338,28.51,15.984,28.51,15.984c0.672,2.444-10.209,29.166-13.31,29.135C301.164,681.926,267.823,668.086,240.306,654.691"
		/>
	<path fill="#3B455A" stroke="#000000" stroke-miterlimit="10" d="M293.121,679.764c-2.912,6.822-5.457,13.802-7.623,20.896
		c-1.146,3.754-2.195,7.615-2.05,11.537c0.34,9.182,10.557,15.834,17.238,7.344c2.926-3.719,5.271-7.896,6.931-12.322
		c1.567-4.186,0.012-4.131-2.456-4.074c-1.388,0.031-3.064,0.062-4.637-0.661c-5.03-2.312-4.909-4.107-2.772-8.822
		c2.752-6.074,6.008-10.033,5.618-17.021c-0.108-1.932-0.653-4.168-2.432-4.924c-1.35-0.572-2.967-0.016-4.038,0.984
		c-1.071,1-1.711,2.367-2.31,3.707C294.091,677.52,293.601,678.641,293.121,679.764"/>
	<path fill="#3B455A" stroke="#000000" stroke-miterlimit="10" d="M317.377,431.073c3.057,5.565,6.858,10.723,11.271,15.289
		c-2.173-10.931-2.836-22.158-1.964-33.271c0.066-0.848,0.108-1.801-0.46-2.434c-0.53-0.591-1.408-0.688-2.202-0.715
		C309.851,409.47,312.049,421.37,317.377,431.073L317.377,431.073z"/>
	<path fill="#EAC5B0" stroke="#000000" stroke-miterlimit="10" d="M342.944,388.433c-34.073-3.451-24.314,40.79-14.628,58.22
		c1.837,3.305,4.339,6.835,7.86,9.063c0.585,0.371-1.389,7.635-1.594,8.514c-0.584,2.5-2.268,5.345,0.465,7.179
		c1.134,0.76,2.54,0.983,3.902,1.08c1.745,0.125,3.504,0.065,5.239-0.168c1.827-0.248,3.674-0.716,5.189-1.767
		c4.343-3.014,2.363-10.67,2.249-15.176c1.06-0.68,2.028-1.443,2.884-2.236C366.34,442.173,380.469,392.235,342.944,388.433
		L342.944,388.433z"/>
	<path fill="#3B455A" stroke="#000000" stroke-miterlimit="10" d="M356.2,441.101c2.747,2.682,7.389,0.982,10.456-1.323
		c12.597-9.48,17.716-27.732,11.885-42.38c-4.88-12.259-22.647-18.893-23.033-2.54c-0.136,5.798,4.671,12.925,5.016,19.268
		C361.017,423.188,358.422,432.409,356.2,441.101L356.2,441.101z"/>
	<path fill="#3B455A" stroke="#000000" stroke-miterlimit="10" d="M307.472,378.818c-14.215,12.187-17.356,33.211-29.762,47.232
		c14.434,3.326,30.183,0.481,42.541-7.684c12.122-8.009,42.787-17.673,34.914-35.133
		C347.151,365.464,319.927,368.141,307.472,378.818L307.472,378.818z"/>
	<path fill="#305399" stroke="#000000" stroke-miterlimit="10" d="M385.78,636.779c16.912-16.326,18.246-43.226,2.641-61.166
		c-10.362-11.914-25.671-16.979-40.208-14.795l-31.372-36.068c4.177-14.094,1.284-29.955-9.078-41.869
		c-15.605-17.94-42.43-20.35-60.943-5.863l-0.034-0.063l-59.367,51.635l0.044,0.076c-9.291,9.424-9.895,24.563-1.064,34.717
		c6.984,8.029,17.877,10.646,27.382,7.48l32.748-9.074l55.259,63.531l-13.526,31.174c-4.451,8.977-3.37,20.125,3.614,28.156
		c8.83,10.151,23.907,11.651,34.528,3.758l0.07,0.053l59.367-51.635L385.78,636.779"/>
	<path fill="#364053" d="M299.283,690.514c-2.736-1.438-5.257-3.396-7.407-5.864c-0.013-0.017-0.025-0.029-0.038-0.046
		c0.013,0.017,0.025,0.029,0.038,0.046C294.026,687.119,296.547,689.078,299.283,690.514L299.283,690.514 M291.829,684.592
		c-0.01-0.012-0.019-0.021-0.029-0.033C291.81,684.57,291.819,684.582,291.829,684.592 M291.79,684.547
		c-0.011-0.012-0.021-0.022-0.031-0.035C291.769,684.523,291.779,684.535,291.79,684.547 M291.752,684.504
		c-0.013-0.016-0.026-0.031-0.039-0.047C291.726,684.473,291.739,684.488,291.752,684.504 M291.713,684.459
		c-0.012-0.014-0.024-0.027-0.036-0.043C291.689,684.43,291.701,684.445,291.713,684.459 M291.667,684.404
		c-0.01-0.013-0.019-0.021-0.029-0.035C291.647,684.381,291.658,684.393,291.667,684.404 M291.629,684.359
		c-0.011-0.015-0.023-0.027-0.035-0.041C291.605,684.332,291.618,684.346,291.629,684.359 M291.593,684.316
		c-0.014-0.017-0.027-0.031-0.04-0.05C291.566,684.285,291.579,684.299,291.593,684.316 M291.552,684.268
		c-0.012-0.014-0.024-0.028-0.037-0.045C291.527,684.238,291.54,684.254,291.552,684.268 M291.51,684.217
		c-0.011-0.014-0.022-0.024-0.033-0.039C291.487,684.191,291.499,684.205,291.51,684.217 M291.472,684.172
		c-0.026-0.031-0.051-0.063-0.076-0.094C291.421,684.109,291.446,684.141,291.472,684.172 M291.392,684.074
		c-0.011-0.015-0.022-0.025-0.033-0.039C291.37,684.047,291.381,684.061,291.392,684.074"/>
	<path fill="#D6D6D6" d="M291.352,684.025c-0.011-0.015-0.022-0.027-0.033-0.039C291.33,683.998,291.341,684.012,291.352,684.025
		 M291.315,683.98c-0.025-0.031-0.05-0.063-0.075-0.095C291.265,683.918,291.29,683.949,291.315,683.98 M291.235,683.881
		c-0.011-0.014-0.021-0.025-0.031-0.039C291.214,683.855,291.224,683.867,291.235,683.881 M291.196,683.834
		c-0.011-0.014-0.022-0.027-0.033-0.043C291.174,683.805,291.186,683.82,291.196,683.834 M291.161,683.789
		c-0.013-0.016-0.025-0.031-0.038-0.047C291.136,683.758,291.148,683.773,291.161,683.789 M291.12,683.738
		c-0.011-0.017-0.021-0.025-0.032-0.041C291.099,683.711,291.109,683.723,291.12,683.738 M291.079,683.686
		c-0.009-0.012-0.018-0.022-0.027-0.032C291.061,683.662,291.07,683.674,291.079,683.686 M291.042,683.639
		c-0.009-0.012-0.019-0.024-0.029-0.037C291.023,683.615,291.032,683.627,291.042,683.639 M291.007,683.594
		c-0.011-0.016-0.023-0.028-0.034-0.043C290.985,683.564,290.996,683.58,291.007,683.594 M290.962,683.535
		c-0.008-0.01-0.016-0.021-0.023-0.027C290.947,683.516,290.954,683.525,290.962,683.535 M290.925,683.488
		c-0.006-0.011-0.013-0.019-0.02-0.023C290.912,683.471,290.919,683.479,290.925,683.488 M290.89,683.443
		c-0.007-0.011-0.015-0.021-0.022-0.029C290.875,683.424,290.882,683.432,290.89,683.443 M290.847,683.387
		c-0.007-0.01-0.014-0.02-0.022-0.026C290.833,683.369,290.84,683.377,290.847,683.387 M290.808,683.336
		c-0.005-0.008-0.01-0.016-0.015-0.021C290.798,683.322,290.803,683.328,290.808,683.336 M290.774,683.291
		c-0.005-0.006-0.008-0.012-0.013-0.016C290.766,683.279,290.769,683.285,290.774,683.291 M290.74,683.246
		c-0.001-0.002-0.002-0.002-0.002-0.004C290.738,683.244,290.74,683.246,290.74,683.246 M290.688,683.176
		c-0.003-0.002-0.005-0.006-0.007-0.01C290.683,683.17,290.685,683.174,290.688,683.176 M290.657,683.135
		c-0.002-0.004-0.005-0.006-0.007-0.01C290.652,683.129,290.655,683.133,290.657,683.135 M290.625,683.092
		c-0.001,0-0.002-0.002-0.002-0.002S290.624,683.092,290.625,683.092"/>
	<path fill="#2C4C8D" stroke="#000000" stroke-miterlimit="10" d="M311.181,693.438c-4.106,0-8.2-0.983-11.898-2.924
		c-2.736-1.438-5.257-3.396-7.407-5.864c-0.013-0.017-0.025-0.029-0.038-0.046c-0.003-0.004-0.006-0.008-0.009-0.012
		c-0.01-0.012-0.019-0.021-0.029-0.033c-0.003-0.004-0.007-0.008-0.01-0.012c-0.011-0.012-0.021-0.023-0.031-0.035
		c-0.003-0.004-0.005-0.006-0.007-0.008c-0.013-0.016-0.026-0.031-0.039-0.047l0,0c-0.012-0.014-0.024-0.027-0.036-0.043
		c-0.004-0.004-0.006-0.006-0.01-0.01c-0.009-0.013-0.02-0.023-0.029-0.035c-0.003-0.004-0.006-0.008-0.009-0.01
		c-0.011-0.015-0.024-0.029-0.035-0.043c-0.001,0-0.001,0-0.001-0.003c-0.014-0.018-0.027-0.03-0.04-0.047h-0.001
		c-0.012-0.016-0.025-0.028-0.037-0.045c-0.001-0.002-0.003-0.004-0.005-0.006c-0.011-0.014-0.023-0.026-0.033-0.039
		c-0.002-0.002-0.004-0.006-0.005-0.008c-0.026-0.029-0.051-0.063-0.076-0.094c-0.002,0-0.003-0.002-0.004-0.004
		c-0.011-0.015-0.022-0.027-0.033-0.039c-0.003-0.004-0.005-0.006-0.007-0.011c-0.011-0.014-0.022-0.026-0.033-0.039
		c-0.001-0.002-0.002-0.004-0.004-0.006c-0.025-0.03-0.05-0.063-0.075-0.094c-0.001-0.002-0.004-0.004-0.005-0.006
		c-0.011-0.014-0.021-0.025-0.031-0.039c-0.003-0.002-0.005-0.006-0.008-0.01c-0.01-0.014-0.022-0.027-0.033-0.041
		c-0.001-0.002-0.001-0.002-0.002-0.004c-0.013-0.017-0.025-0.029-0.038-0.047c-0.001,0-0.002-0.002-0.003-0.005
		c-0.011-0.014-0.021-0.024-0.032-0.041c-0.003-0.004-0.006-0.006-0.009-0.01c-0.009-0.012-0.018-0.022-0.027-0.035
		c-0.003-0.004-0.006-0.008-0.01-0.012c-0.01-0.014-0.019-0.025-0.029-0.037c-0.002-0.004-0.004-0.006-0.006-0.008
		c-0.011-0.016-0.022-0.029-0.034-0.043c-0.004-0.008-0.007-0.012-0.011-0.019c-0.008-0.01-0.015-0.02-0.023-0.026
		c-0.005-0.008-0.009-0.014-0.014-0.021c-0.006-0.01-0.013-0.018-0.02-0.024c-0.005-0.008-0.01-0.015-0.015-0.021
		c-0.008-0.012-0.015-0.02-0.022-0.028c-0.007-0.011-0.014-0.021-0.021-0.025c-0.007-0.012-0.014-0.021-0.022-0.029
		c-0.005-0.008-0.011-0.014-0.017-0.021c-0.005-0.008-0.01-0.015-0.015-0.021c-0.007-0.008-0.013-0.016-0.019-0.024
		c-0.005-0.007-0.008-0.011-0.013-0.017c-0.007-0.01-0.014-0.018-0.021-0.026c0-0.002-0.002-0.005-0.002-0.005
		c-0.017-0.021-0.034-0.045-0.05-0.065c-0.003-0.002-0.005-0.006-0.007-0.01c-0.008-0.011-0.016-0.021-0.024-0.031
		c-0.002-0.002-0.005-0.006-0.007-0.01c-0.009-0.013-0.017-0.023-0.025-0.033c-0.001,0-0.002-0.002-0.002-0.002
		c-4.523-6.092-5.954-13.646-4.439-20.648c6.244,7.181,14.525,9.98,23.657,9.98c32.545-0.004,75.849-35.609,75.849-35.609
		l0.136,0.023l-59.351,51.621l-0.07-0.054c-3.187,2.369-6.773,3.894-10.473,4.588C314.36,693.289,312.77,693.438,311.181,693.438"/>
	<path fill="#273D54" d="M288.35,533.221l-7.796-8.961c-0.898-1.031-0.789-2.596,0.243-3.492l8.963-7.797
		c1.032-0.896,1.14-2.459,0.243-3.489l-7.796-8.966c-0.897-1.03-2.46-1.141-3.492-0.241l-8.963,7.795
		c-1.032,0.897-2.595,0.789-3.492-0.242l-7.634-8.777c-0.897-1.031-2.46-1.141-3.492-0.242l-8.963,7.796
		c-1.032,0.897-1.14,2.461-0.243,3.491l7.634,8.777c0.897,1.031,0.788,2.596-0.244,3.492l-8.776,7.633
		c-1.032,0.896-1.141,2.459-0.244,3.492l7.797,8.963c0.897,1.031,2.46,1.141,3.491,0.242l8.777-7.636
		c1.032-0.896,2.595-0.786,3.492,0.244l7.796,8.963c0.897,1.033,2.461,1.142,3.492,0.244l8.964-7.797
		C289.138,535.816,289.247,534.254,288.35,533.221L288.35,533.221z"/>
	<path fill="#273D54" d="M366.604,610.119c-3.439,2.992-8.651,2.629-11.642-0.812c-2.99-3.438-2.628-8.649,0.811-11.641
		c3.438-2.992,8.65-2.629,11.641,0.812C370.405,601.916,370.042,607.129,366.604,610.119L366.604,610.119z"/>
	<path fill="#273D54" d="M343.052,608.732c-3.439,2.989-8.651,2.629-11.642-0.812c-2.991-3.438-2.627-8.649,0.811-11.643
		c3.439-2.99,8.651-2.627,11.641,0.813C346.853,600.531,346.49,605.742,343.052,608.732L343.052,608.732z"/>
	<path fill="#273D54" d="M364.25,633.104c-3.439,2.99-8.651,2.63-11.642-0.811c-2.991-3.438-2.628-8.65,0.811-11.643
		c3.438-2.99,8.65-2.627,11.641,0.813C368.051,624.902,367.688,630.113,364.25,633.104L364.25,633.104z"/>
	<path fill="#273D54" d="M341.521,631.938c-3.439,2.99-8.651,2.628-11.642-0.813c-2.991-3.438-2.628-8.65,0.811-11.641
		c3.438-2.992,8.65-2.629,11.641,0.811C345.322,623.735,344.959,628.947,341.521,631.938L341.521,631.938z"/>
	<path fill="#EAC5B0" stroke="#000000" stroke-miterlimit="10" d="M288.593,529.736l-7.797-8.963
		c-0.897-1.031-0.788-2.597,0.244-3.492l8.963-7.797c1.032-0.896,1.141-2.459,0.244-3.49l-7.797-8.965
		c-0.897-1.031-2.46-1.142-3.492-0.242l-8.963,7.797c-1.032,0.896-2.595,0.787-3.492-0.244l-7.634-8.776
		c-0.897-1.029-2.46-1.14-3.492-0.242l-8.963,7.797c-1.032,0.896-1.141,2.459-0.244,3.492l7.634,8.774
		c0.898,1.031,0.789,2.597-0.243,3.492l-8.777,7.635c-1.031,0.896-1.14,2.459-0.243,3.488l7.796,8.967
		c0.898,1.029,2.461,1.139,3.492,0.24l8.777-7.633c1.032-0.896,2.595-0.789,3.492,0.242l7.796,8.965
		c0.898,1.028,2.461,1.141,3.492,0.242l8.964-7.798C289.381,532.33,289.49,530.766,288.593,529.736L288.593,529.736z"/>
	<path fill="#EAC5B0" stroke="#000000" stroke-miterlimit="10" d="M366.846,606.633c-3.438,2.99-8.65,2.627-11.641-0.811
		c-2.991-3.438-2.628-8.65,0.811-11.642s8.651-2.629,11.641,0.81C370.648,598.43,370.285,603.643,366.846,606.633L366.846,606.633z"
		/>
	<path fill="#EAC5B0" stroke="#000000" stroke-miterlimit="10" d="M343.294,605.246c-3.438,2.992-8.65,2.627-11.641-0.812
		c-2.99-3.438-2.628-8.649,0.811-11.641c3.438-2.992,8.65-2.629,11.641,0.812C347.096,597.043,346.733,602.256,343.294,605.246
		L343.294,605.246z"/>
	<path fill="#EAC5B0" stroke="#000000" stroke-miterlimit="10" d="M364.492,629.617c-3.438,2.992-8.65,2.629-11.641-0.812
		c-2.991-3.438-2.628-8.649,0.811-11.643c3.438-2.988,8.65-2.627,11.641,0.813C368.293,621.414,367.931,626.627,364.492,629.617
		L364.492,629.617z"/>
	<path fill="#EAC5B0" stroke="#000000" stroke-miterlimit="10" d="M341.763,628.451c-3.438,2.99-8.65,2.627-11.641-0.813
		c-2.991-3.438-2.628-8.649,0.811-11.641c3.438-2.99,8.65-2.629,11.641,0.811C345.564,620.248,345.202,625.459,341.763,628.451
		L341.763,628.451z"/>
	<path fill="#2C4C8D" d="M311.965,512.637c-1.557-6.315-4.597-12.364-9.16-17.61c-8.371-9.625-20.131-14.552-31.957-14.552
		c-9.199,0-18.44,2.982-26.15,9.056c1.71-2.459,3.746-4.75,6.11-6.808c7-6.088,15.639-9.073,24.241-9.073
		c10.325,0,20.595,4.305,27.903,12.704C309.522,493.908,312.475,503.373,311.965,512.637"/>
	<path fill="#EBEBEB" d="M205.701,572.168c-4.684,0-9.353-1.279-13.437-3.803l0,0C196.348,570.887,201.017,572.168,205.701,572.168
		c2.726,0,5.455-0.434,8.08-1.307l13.85-3.838l0,0l-13.85,3.838C211.156,571.734,208.427,572.168,205.701,572.168"/>
	<path fill="#ADAFB1" d="M192.264,568.365c-2.143-1.32-4.126-2.984-5.865-4.984c-0.016-0.02-0.031-0.035-0.046-0.055
		c0.015,0.018,0.03,0.035,0.046,0.055C188.138,565.379,190.121,567.043,192.264,568.365L192.264,568.365"/>
	<polyline fill="#ADAFB1" points="227.631,567.023 227.631,567.023 245.545,562.059 245.549,562.057 227.631,567.023 	"/>
	<path fill="#ADAFB1" d="M186.342,563.314c-0.014-0.019-0.029-0.035-0.044-0.054C186.312,563.279,186.328,563.297,186.342,563.314
		 M186.29,563.252c-0.014-0.016-0.027-0.031-0.04-0.047C186.263,563.221,186.277,563.238,186.29,563.252 M186.242,563.197
		c-0.015-0.019-0.029-0.035-0.043-0.053C186.213,563.162,186.227,563.18,186.242,563.197 M186.187,563.131
		c-0.014-0.016-0.028-0.033-0.042-0.049C186.159,563.098,186.173,563.115,186.187,563.131 M186.138,563.074
		c-0.013-0.017-0.026-0.031-0.038-0.045C186.112,563.043,186.125,563.059,186.138,563.074 M186.086,563.012
		c-0.013-0.016-0.027-0.033-0.04-0.049C186.059,562.98,186.073,562.996,186.086,563.012 M186.033,562.949
		c-0.011-0.015-0.022-0.025-0.033-0.039C186.011,562.922,186.022,562.936,186.033,562.949 M185.988,562.895
		c-0.013-0.016-0.026-0.03-0.039-0.049C185.962,562.863,185.975,562.879,185.988,562.895 M185.933,562.828
		c-0.011-0.014-0.022-0.025-0.033-0.041C185.911,562.801,185.922,562.814,185.933,562.828 M185.882,562.766
		c-0.01-0.012-0.02-0.022-0.029-0.037C185.862,562.742,185.872,562.754,185.882,562.766 M185.835,562.709
		c-0.012-0.016-0.024-0.029-0.036-0.045C185.811,562.678,185.823,562.693,185.835,562.709 M185.782,562.643
		c-0.009-0.012-0.017-0.021-0.025-0.03C185.765,562.621,185.773,562.631,185.782,562.643 M185.735,562.584
		c-0.01-0.012-0.02-0.023-0.03-0.035C185.715,562.559,185.725,562.572,185.735,562.584 M185.685,562.521
		c-0.008-0.011-0.016-0.021-0.023-0.029C185.669,562.502,185.677,562.512,185.685,562.521 M185.631,562.453
		c-0.007-0.008-0.013-0.019-0.02-0.023C185.618,562.438,185.624,562.445,185.631,562.453 M185.59,562.402
		c-0.011-0.015-0.022-0.027-0.032-0.041C185.568,562.375,185.579,562.389,185.59,562.402 M185.536,562.334
		c-0.006-0.008-0.012-0.016-0.018-0.023C185.524,562.318,185.53,562.324,185.536,562.334 M185.484,562.266
		c-0.006-0.008-0.012-0.016-0.018-0.022C185.472,562.25,185.478,562.258,185.484,562.266 M185.442,562.213
		c-0.005-0.008-0.009-0.014-0.014-0.02C185.433,562.201,185.437,562.205,185.442,562.213 M185.388,562.141
		c-0.005-0.006-0.009-0.01-0.013-0.018C185.379,562.131,185.383,562.135,185.388,562.141 M185.296,562.021
		c-0.004-0.007-0.007-0.011-0.01-0.015C185.289,562.012,185.293,562.016,185.296,562.021 M185.238,561.945
		c-0.002-0.004-0.004-0.006-0.006-0.011C185.234,561.939,185.236,561.941,185.238,561.945 M185.205,561.9
		c-0.001-0.002-0.002-0.002-0.003-0.004C185.203,561.898,185.204,561.898,185.205,561.9 M185.149,561.826
		c-0.001-0.002-0.003-0.004-0.005-0.006C185.146,561.822,185.148,561.824,185.149,561.826 M185.061,561.705L185.061,561.705
		L185.061,561.705"/>
	<path fill="#2C4C8D" stroke="#000000" stroke-miterlimit="10" d="M205.701,572.168c-4.684,0-9.353-1.279-13.437-3.803
		c-2.143-1.322-4.126-2.984-5.865-4.984c-0.016-0.02-0.031-0.037-0.046-0.055c-0.004-0.004-0.007-0.008-0.011-0.012
		c-0.014-0.019-0.03-0.035-0.044-0.054c-0.003-0.004-0.006-0.006-0.008-0.01c-0.013-0.016-0.027-0.031-0.04-0.047
		c-0.003-0.004-0.006-0.006-0.008-0.01c-0.015-0.017-0.029-0.033-0.043-0.052c-0.004-0.004-0.008-0.008-0.012-0.014
		c-0.014-0.018-0.028-0.033-0.042-0.051c-0.002-0.002-0.005-0.006-0.007-0.008c-0.013-0.017-0.026-0.031-0.038-0.045
		c-0.005-0.006-0.009-0.013-0.014-0.019c-0.013-0.016-0.027-0.031-0.04-0.049c-0.005-0.006-0.008-0.01-0.013-0.014
		c-0.011-0.015-0.022-0.027-0.033-0.041c-0.004-0.004-0.008-0.011-0.012-0.015c-0.013-0.018-0.026-0.032-0.039-0.049
		c-0.005-0.008-0.011-0.014-0.016-0.02c-0.011-0.015-0.022-0.025-0.033-0.041c-0.006-0.008-0.012-0.015-0.018-0.021
		c-0.01-0.014-0.02-0.024-0.029-0.037c-0.006-0.006-0.012-0.016-0.018-0.021c-0.012-0.017-0.024-0.029-0.036-0.045
		c-0.006-0.008-0.012-0.015-0.017-0.021c-0.009-0.012-0.017-0.021-0.025-0.031c-0.007-0.008-0.015-0.018-0.022-0.026
		c-0.01-0.012-0.02-0.023-0.03-0.037c-0.007-0.01-0.014-0.018-0.02-0.023c-0.008-0.01-0.016-0.021-0.023-0.028
		c-0.01-0.015-0.021-0.025-0.031-0.039c-0.007-0.01-0.013-0.017-0.02-0.025c-0.007-0.008-0.014-0.018-0.021-0.024
		c-0.011-0.015-0.022-0.027-0.032-0.041c-0.007-0.011-0.015-0.021-0.022-0.027c-0.006-0.01-0.012-0.016-0.018-0.023
		c-0.012-0.016-0.023-0.028-0.034-0.043c-0.006-0.008-0.012-0.018-0.018-0.022c-0.008-0.01-0.016-0.021-0.024-0.029
		c-0.005-0.008-0.009-0.014-0.014-0.02c-0.013-0.019-0.027-0.035-0.04-0.054c-0.005-0.006-0.009-0.01-0.013-0.018
		c-0.027-0.033-0.053-0.068-0.079-0.104c-0.003-0.006-0.007-0.01-0.01-0.014c-0.016-0.021-0.032-0.043-0.048-0.063
		c-0.002-0.005-0.004-0.007-0.006-0.011c-0.009-0.012-0.018-0.022-0.027-0.034c-0.001-0.003-0.002-0.003-0.003-0.005
		c-0.018-0.022-0.035-0.047-0.053-0.069c-0.001-0.002-0.003-0.004-0.005-0.006c-0.028-0.039-0.055-0.076-0.083-0.115h-0.001
		c-4.457-6.07-5.863-13.578-4.357-20.537c16.288,18.729,36.864,22.371,50.418,22.371c8.51,0,14.252-1.438,14.424-1.479
		l-17.914,4.963l-13.85,3.839C211.156,571.734,208.427,572.168,205.701,572.168"/>
	<path fill="#C6D6E1" d="M283.284,604.172l-9.048-10.531l9.138,10.509C283.344,604.156,283.314,604.164,283.284,604.172"/>
	<path fill="#364053" d="M301.674,625.58l-18.39-21.406c0.03-0.01,0.06-0.018,0.09-0.024l18.414,21.17L301.674,625.58"/>
	<path fill="#EBEBEB" d="M268.344,586.887l-5.911-6.774c0.003-0.013,0.005-0.021,0.008-0.031l5.908,6.793
		C268.347,586.877,268.346,586.883,268.344,586.887"/>
	<path fill="#ADAFB1" d="M262.433,580.111l-15.967-18.304l0.067-0.02l15.908,18.289C262.438,580.09,262.436,580.1,262.433,580.111"
		/>
	<polyline fill="#C6D6E1" points="274.073,593.455 268.344,586.887 268.349,586.873 274.073,593.455 	"/>
	<polyline fill="#2C4C8D" stroke="#000000" stroke-miterlimit="10" points="301.701,625.611 301.674,625.58 301.788,625.318 
		283.374,604.148 274.236,593.641 274.205,593.605 274.073,593.455 268.349,586.873 262.441,580.08 246.533,561.791 259,558.383 
		282.943,586.039 306.885,613.697 301.701,625.611 	"/>
	<path fill="#D7E8F4" stroke="#000000" stroke-miterlimit="10" d="M399.566,528.719c1.583,7.537,2.921,15.14,4.243,22.693
		c0.312,1.777,0.621,3.598,0.319,5.375c-0.885,5.215-6.412,8.074-11.278,10.143c-7.713,3.273-15.426,6.549-23.138,9.824
		c-7.702,3.271-16.14,8.396-24.271,10.297c-4.716,1.104-4.806-0.846-8.12-4.953c-1.613-2-3.721-6.061-5.951-7.377
		c2.97,1.271,11.486-6.414,13.692-8.129c6.965-5.418,14.265-10.65,20.844-16.643c1.587-1.443,3.233-3.084,3.567-5.203
		c0.241-1.537-0.254-3.084-0.742-4.563c-5.784-17.491-11.568-34.987-17.353-52.481c-1.463-4.429-2.931-9.238-1.435-13.654
		c2.464-7.273,12.291-9.785,19.357-6.777c7.065,3.009,11.739,9.791,15.313,16.589C391.988,497.877,396.299,513.158,399.566,528.719
		L399.566,528.719z"/>
	<path fill="#EAC5B0" stroke="#000000" stroke-miterlimit="10" d="M335.557,586.711c-0.152,0.078-0.304,0.15-0.458,0.213
		c-5.199,2.08-10.864,2.967-16.448,2.506c-0.274-0.021-0.556-0.049-0.796-0.184c-0.266-0.146-0.449-0.402-0.624-0.65
		c-1.625-2.309-3.293-4.723-3.754-7.508c-0.137-0.824-0.091-1.82,0.599-2.291c0.471-0.322,1.091-0.287,1.659-0.236
		c0.89,0.076,3.22,0.709,3.968,0.168c0.8-0.584,0.176-1.68-0.088-2.389c1.099-0.682,2.203-1.363,3.303-2.045
		c0.634-0.393,2.332-1.928,3.091-1.912l11.717,0.23l3.771,7.924C339.792,582.404,337.829,585.516,335.557,586.711L335.557,586.711z"
		/>
	<path fill="#EAC5B0" stroke="#000000" stroke-miterlimit="10" d="M279.392,582.039c0.141,0.031,0.28,0.057,0.42,0.07
		c4.688,0.524,9.485-0.025,13.917-1.646c0.217-0.08,0.44-0.166,0.605-0.328c0.184-0.18,0.275-0.43,0.361-0.668
		c0.802-2.24,1.617-4.574,1.367-6.938c-0.074-0.699-0.334-1.498-1-1.726c-0.455-0.156-0.95,0.013-1.401,0.178
		c-0.705,0.263-2.455,1.3-3.183,1.025c-0.781-0.293-0.52-1.324-0.465-1.959c-1.044-0.307-2.095-0.613-3.14-0.92
		c-0.602-0.178-2.325-1.043-2.938-0.859l-9.463,2.812l-1.286,7.281C274.988,579.492,277.279,581.578,279.392,582.039
		L279.392,582.039z"/>
	<path fill="#D7E8F4" stroke="#000000" stroke-miterlimit="10" d="M246.314,567.453c-0.214,0.785-0.349,1.6-0.443,2.406
		c-0.424,3.606-0.005,7.541,2.296,10.354c1.048,1.279,2.428,2.254,3.881,3.047c5.619,3.066,11.878,3.019,17.968,1.752
		c3.426-0.713,1.956,1.113,4.706-1.926c1.755-1.939,3.455-6.162,3.671-8.764c0.298-3.609,0.742-1.406-1.902-3.808
		c-2.535-2.303-6.66-4.2-9.611-6.041c-3.141-1.957-6.61-3.612-10.307-3.778c-3.697-0.166-7.655,1.438-9.439,4.68
		C246.773,566.031,246.51,566.732,246.314,567.453L246.314,567.453z"/>
</g>
</svg>
