<?xml version="1.0" encoding="utf-8"?>
<!-- Generator: Adobe Illustrator 16.0.3, SVG Export Plug-In . SVG Version: 6.00 Build 0)  -->
<!DOCTYPE svg PUBLIC "-//W3C//DTD SVG 1.1//EN" "http://www.w3.org/Graphics/SVG/1.1/DTD/svg11.dtd">
<svg version="1.1" id="Capa_1" xmlns="http://www.w3.org/2000/svg" xmlns:xlink="http://www.w3.org/1999/xlink" x="0px" y="0px"
	 width="960px" height="560px" viewBox="0 0 960 560" enable-background="new 0 0 960 560" xml:space="preserve">
<g>
	<g>
		<defs>
			<rect id="SVGID_1_" x="-70" y="-119" width="1099.88" height="799.8"/>
		</defs>
		<clipPath id="SVGID_2_">
			<use xlink:href="#SVGID_1_"  overflow="visible"/>
		</clipPath>
		<polyline clip-path="url(#SVGID_2_)" fill="#FFFFFF" points="1029.88,680.8 -70.12,680.8 -70.12,-119.2 1029.88,-119.2 
			1029.88,680.8 		"/>
	</g>
	<path fill="#E8E8E8" d="M187.986,640.133c-11.706,0-23.406-0.357-35.094-1.202c-15.891-1.149-32.298-3.397-45.794-11.864
		c-7.454-4.676-13.971-11.51-16.271-20.004c-2.3-8.492,0.518-18.67,8.017-23.271c2.75-1.688,5.968-2.586,8.518-4.561
		c2.551-1.976,4.273-5.697,2.575-8.441c-2.762,0.004-11.132,0.433-21.285,0.433c-27.221,0-67.287-3.083-46.673-25.718
		c7.754-8.516,30.501-9.465,49.329-9.465c2.702,0,5.32,0.02,7.805,0.039c2.487,0.02,4.837,0.039,6.994,0.039
		c3.16,0,5.906-0.041,8.063-0.188c17.179-1.16,34.372-2.129,51.57-2.93c1.341,0.732,2.706,1.421,4.07,2.085
		c7.049,3.431,14.479,6.892,22.203,10.144c4.682,4.367,9.87,8.192,15.437,11.356c3.365,1.912,7.091,3.35,11.044,4.409
		c0.491,0.853,1.035,1.685,1.633,2.49c0,0,0.001,0.002,0.002,0.002c0.008,0.012,0.016,0.021,0.025,0.033
		c0.002,0.004,0.005,0.006,0.007,0.01c0.008,0.01,0.016,0.021,0.024,0.031c0.002,0.004,0.004,0.008,0.007,0.01
		c0.017,0.022,0.033,0.045,0.05,0.066c0,0.001,0.001,0.002,0.002,0.004c0.007,0.01,0.014,0.018,0.021,0.028
		c0.005,0.005,0.008,0.01,0.013,0.016c0.006,0.009,0.013,0.017,0.019,0.025c0.005,0.006,0.01,0.014,0.015,0.021
		c0.005,0.006,0.012,0.016,0.017,0.022c0.008,0.01,0.015,0.019,0.022,0.028c0.007,0.008,0.014,0.018,0.021,0.027
		c0.007,0.01,0.015,0.02,0.022,0.028c0.005,0.007,0.01,0.013,0.015,0.021c0.007,0.008,0.014,0.016,0.02,0.025
		c0.005,0.005,0.009,0.012,0.014,0.018c0.007,0.01,0.015,0.02,0.023,0.029c0.004,0.005,0.008,0.01,0.011,0.016
		c0.011,0.014,0.023,0.028,0.034,0.043c0.002,0.002,0.004,0.004,0.006,0.008c0.01,0.012,0.02,0.025,0.029,0.037
		c0.004,0.004,0.007,0.009,0.01,0.013c0.009,0.011,0.018,0.022,0.027,0.034c0.003,0.004,0.006,0.007,0.009,0.011
		c0.011,0.015,0.021,0.026,0.032,0.041c0.001,0.001,0.002,0.002,0.003,0.004c0.013,0.015,0.025,0.031,0.038,0.047
		c0,0.001,0.001,0.002,0.002,0.003c0.011,0.014,0.022,0.028,0.033,0.042c0.003,0.003,0.005,0.007,0.008,0.009
		c0.01,0.014,0.02,0.025,0.031,0.039c0.002,0.002,0.003,0.004,0.005,0.006c0.025,0.031,0.05,0.063,0.075,0.094
		c0.001,0.001,0.003,0.003,0.004,0.005c0.011,0.013,0.022,0.026,0.033,0.04c0.001,0.002,0.002,0.003,0.004,0.005
		c-2.187,5.456-4.142,11.005-5.858,16.627c-1.146,3.754-2.195,7.615-2.05,11.537c0.23,6.206,4.973,11.257,10.085,11.257
		c2.452,0,4.988-1.161,7.153-3.913c2.926-3.718,5.271-7.894,6.931-12.323c0.859-2.293,0.78-3.313,0.128-3.757
		c0.244-0.253,0.479-0.511,0.701-0.774c2.634-3.115,4.549-6.93,7.479-9.689c0.002,0,0.004,0,0.006-0.001
		c1.425,1.899,2.663,3.115,3.463,3.115c0.064,0,0.124-0.007,0.182-0.022c17.293-4.574,34.351-12.396,50.572-21.627
		c6.808-2.335,13.44-5.181,19.821-8.513c7.446-3.89,14.352-8.292,16.9-15.197c3.197-2.271,6.329-4.538,9.391-6.784
		c2.718-0.17,5.438-0.334,8.166-0.492c11.617-0.674,23.241-1.318,34.862-1.935l5.765,28.212l47.563-9.719l12.688,1.074l1.038-3.879
		l109.91-22.461c12.18-0.264,24.368-0.482,36.55-0.651c20.062-0.278,40.129-0.424,60.191-0.424c23.018,0,46.029,0.192,69.044,0.595
		c4.854,0.084,9.715,0.18,14.582,0.297l1.011,2.928l22.787-1.729l0.035-0.412c25.833,1.132,51.621,3.333,76.816,8.144
		c6.443,1.23,12.849,2.631,19.205,4.229l3.855,5.855l7.197-2.861c5.375,1.564,10.711,3.285,16.004,5.174
		c9.319,3.327,19.364,8.05,23.011,17.25c4.482,11.314-3.426,24.484-14.214,30.116c-9.727,5.075-21.032,5.606-32.081,5.606
		c-1.207,0-2.41-0.006-3.608-0.014c-35.053-0.218-70.123-0.309-105.176-0.309c-91.698,0-183.38,0.625-275.076,1.252
		c-20.57,0.141-41.14,0.281-61.711,0.422c-3.778,0.025-7.741,0.098-11.038,1.945c-7.379,4.134-1.562,7.643-2.659,12.633
		c-1.349,6.136-4.3,11.393-9.661,14.982c-8.027,5.375-18.121,6.338-27.748,7.143c-29.665,2.484-59.331,4.967-88.997,7.449
		C252.11,637.455,220.029,640.133,187.986,640.133"/>
	<path fill="#E5D1BD" d="M95.895,524.57c-3.14,0.207-6.013-0.896-9.056-1.237c0.145-10.75,1.31-21.058,3.626-31.673
		c4.733,5.255,8.718,2.201,8.557,12.072C98.97,506.928,95.28,519.707,95.895,524.57L95.895,524.57z"/>
	<path fill="#3B455A" d="M86.152,517.986c-3.571-1.278-4.376,7.25-4.404,9.254c-0.016,1.205,0.127,2.435-0.18,3.6
		c-0.336,1.281-1.183,2.361-2.008,3.398c-1.729,2.174-3.458,4.347-5.187,6.52c-0.777,0.979-1.568,1.979-1.984,3.156
		c-1.033,2.916,0.673,6.375,3.435,7.771c9.584,4.842,18.339-6.882,20.414-14.621c0.318-1.186,0.551-2.394,0.783-3.6
		c0.479-2.495,2.368-7.936,1.377-10.373c-1.155-2.844-4.655-0.783-6.948-1.855C89.322,520.242,87.597,518.505,86.152,517.986
		L86.152,517.986z"/>
	<path fill="#BCBEC0" d="M154.24,347.439c-8.935,24.323-19.245,48.116-25.125,73.58c-7.263,31.455-18.974,62.131-24.984,93.655
		c-3.884,0.126-7.777-0.039-11.636-0.495c-4.424-0.521-11.445-1.716-13.042-6.546c-0.816-2.469,0.049-6.483,0.173-9.049
		c0.399-8.216,0.986-16.423,1.59-24.623c1.709-23.206,2.881-46.696,7.15-69.573c4.49-24.066,8.79-48.216,12.741-72.279
		c2.042-12.436,4.556-24.795,7.65-37.014c0.797-3.148,9.097-35.598,10.726-35.339c19.339,3.078,37.431,9.482,54.272,19.47
		c1.637,0.971,3.217,2.127,3.787,3.856c0.568,1.728,0.053,3.217-0.475,4.786c-5.034,14.957-11.744,28.983-17.111,43.883
		C158.089,336.935,156.194,342.117,154.24,347.439"/>
	<path fill="#E5D1BD" d="M159.436,519.054c2.936,1.134,6.007,0.935,9.014,1.513c3.059-10.307,5.013-20.494,5.958-31.316
		c-6.081,3.609-8.978-0.493-11.76,8.98C161.747,501.297,161.47,514.595,159.436,519.054L159.436,519.054z"/>
	<path fill="#3B455A" d="M171.524,517.464c0.007,5.829,4.595,12.104,7.133,17.347c0.299,0.616,0.604,1.258,0.616,1.943
		c0.018,1.018-0.604,1.921-1.2,2.747c-0.827,1.146-1.726,2.348-3.043,2.862c-1.292,0.508-2.745,0.254-4.101-0.045
		c-2.27-0.498-4.516-1.1-6.731-1.803c-0.551-0.175-1.114-0.363-1.564-0.729c-0.533-0.432-0.854-1.065-1.158-1.68
		c-1.566-3.15-2.898-5.388-2.813-8.898c0.087-3.627,0.545-7.385-0.118-10.977c-0.328-1.744-0.762-3.974,0.731-4.931
		c1.155-0.739,3.269,0.28,4.525,0.485c2.218,0.361,4.268,0.224,6.31,1.388c0.416,0.237,0.822,0.522,1.078,0.928
		C171.449,516.514,171.523,516.978,171.524,517.464L171.524,517.464z"/>
	<path fill="#BCBEC0" d="M156.412,332.587c1.296,25.881,4.064,51.663,2.104,77.723c-2.42,32.193-0.362,64.962-4,96.849
		c3.671,1.275,7.437,2.275,11.256,2.988c4.379,0.817,11.438,1.766,14.399-2.371c1.513-2.115,1.882-6.205,2.525-8.691
		c2.063-7.963,3.943-15.971,5.806-23.982c5.27-22.664,11.137-45.439,13.866-68.551c2.87-24.313,5.947-48.646,9.332-72.796
		c1.749-12.481,3.024-25.03,3.704-37.616c0.176-3.242,1.902-36.692,0.269-36.929c-19.379-2.813-38.556-2.08-57.606,2.448
		c-1.852,0.439-3.704,1.074-4.762,2.555c-1.057,1.481-1.008,3.056-0.97,4.71c0.357,15.776,2.592,31.166,3.285,46.985
		C155.861,321.414,156.129,326.925,156.412,332.587"/>
	<path fill="#3B455A" d="M428.542,543.931c0.414-1.353,1.115-2.596,2.155-3.503c0.548-0.479,1.176-0.854,1.709-1.35
		c2.507-2.332,2.223-4.563,5.911-4.057c4.197,0.576,8.378,1.35,12.562,2.023c0.165,0.025,0.339,0.057,0.469,0.167
		c0.188,0.157,0.23,0.431,0.26,0.679c0.172,1.45,0.345,2.9,0.518,4.35c0.467,3.918,3.978,5.065,6.854,6.615
		c0.74,0.398,1.507,0.799,2.287,1.213c3.263,1.73,13.156,5.578,8.274,10.688c-2.018,2.112-5.514,2.11-8.201,2.384
		c-2.596,0.264-5.208-0.359-7.767-0.716c-8.208-1.55-15.777-3.979-23.208-7.942c-2.661-1.42-2.49-5.438-2.251-8.289
		C428.178,545.43,428.318,544.664,428.542,543.931L428.542,543.931z"/>
	<polyline fill="#BCBEC0" points="440.286,289.115 431.918,321.873 441.196,415.225 430.294,539.425 454.808,541.5 486.615,422.691 
		511.707,292.701 440.286,289.115 	"/>
	<path fill="#3B455A" d="M565.575,547.156c-0.061-1.414,0.187-2.818,0.865-4.021c0.357-0.633,0.825-1.195,1.163-1.84
		c1.587-3.035,0.576-5.043,4.224-5.794c4.148-0.854,8.349-1.517,12.518-2.275c0.165-0.03,0.34-0.059,0.498,0.002
		c0.229,0.087,0.36,0.33,0.471,0.554c0.646,1.311,1.291,2.619,1.938,3.929c1.745,3.54,5.437,3.452,8.666,3.956
		c0.829,0.13,1.687,0.253,2.56,0.383c3.653,0.544,14.264,0.88,11.36,7.324c-1.2,2.664-4.497,3.826-6.939,4.978
		c-2.359,1.113-5.03,1.396-7.563,1.911c-8.256,1.271-16.203,1.499-24.528,0.236c-2.981-0.452-4.157-4.299-4.883-7.067
		C565.73,548.691,565.608,547.923,565.575,547.156L565.575,547.156z"/>
	<polygon fill="#BCBEC0" points="491.817,302.966 482.805,327.814 534.66,421.578 565.727,542.322 589.533,536.119 579.973,413.5 
		560.358,282.57 491.817,302.966 	"/>
	<path fill="#7DB5DB" d="M411.735,297.945c0.202-6.095,0.564-11.195,0.614-13.02c0.457-16.501,2.036-33.099,4.276-49.745
		c2.023-15.031,4.592-30.101,7.372-45.243c4.361-23.745,8.325-44.667,17.067-67.249c3.105-8.02,6.291-16.184,11.651-22.861
		c4.937-6.153,12.304-10.378,19.701-12.855c3.456-1.157,7.344-2.145,10.802-2.928c3.917-0.887,5.883,0.881,9.633,2.487
		c2.521,1.079,5.479,1.367,8.092,2.283c15.517,5.439,24.378,16.392,29.628,31.942c4.225,12.51,8.448,25.021,12.673,37.532
		c3.47,10.274,6.939,20.551,9.947,30.974c7.875,27.283,12.529,55.4,15.948,83.583c1.714,14.13,3.117,28.296,4.47,42.466
		c0.864,9.056-3.742,5.247-9.18,2.481c-9.371-4.77-18.679-9.799-29.19-11.52c-5.104-0.837-10.304-0.877-15.475-0.804
		c-31.455,0.45-63.023,5.128-92.565,15.938c-1.756,0.643-3.541,1.328-4.974,2.527c-1.914,1.602-4.506,5.245-7.271,3.342
		c-1.719-1.184-2.135-5.221-2.449-7.039C411.243,312.945,411.489,305.313,411.735,297.945"/>
	<path fill="#534741" d="M486.746,22.326c3.982,4.398,6.676,9.895,8.253,15.637c0.419,1.526,0.93,3.283,2.364,3.914
		c1.535,0.677,0.87,3.077,1.571,1.547c0.7-1.53,3.056-6.827,2.831-8.507c-0.523-3.934-1.419-7.821-2.668-11.59
		c-1.087-3.277-2.561-6.625-5.302-8.69c-1.625-1.224-3.576-1.901-5.492-2.552c-2.78-0.944-5.637-1.884-8.557-1.779
		c-5.034,0.182-7.592,2.613-2.552,5.067C480.806,17.13,484.018,19.313,486.746,22.326L486.746,22.326z"/>
	<path fill="#EAC5B0" d="M471.816,94.931c6.782-0.875,13.564-1.751,20.347-2.627c-0.324-6.057-1.086-12.112-2.277-18.087
		c5.551-2.321,11.916-5.764,12.484-12.368c0.179-2.08-0.282-4.194-0.739-6.26c-1.889-8.543-3.778-17.085-5.668-25.627
		c-0.653-2.954-1.342-5.995-2.962-8.507c-2.842-4.407-7.927-6.265-12.684-7.08c-12.139-2.081-25.02,1.035-33.758,9.896
		c-2.325,2.358-4.384,5.179-5.257,8.574c-1.347,5.233,0.28,10.948,1.892,16.269c1.488,4.911,2.977,9.822,4.464,14.733
		c1.712,5.649,4.071,12.062,9.149,14.098c2.696,1.081,5.772,0.694,8.255,2.321C469.44,83.136,469.319,90.037,471.816,94.931
		L471.816,94.931z"/>
	<path fill="#3B455A" d="M484.709,68.484c-2.541,2.743-5.835,3.607-9.428,3.341c-1.526-0.112-1.478-2.685,0.052-2.571
		c2.976,0.219,5.597-0.399,7.713-2.682C484.11,65.424,485.768,67.342,484.709,68.484L484.709,68.484z M502.888,51.727
		c-0.456-1.561-2.195-6.04-3.869-2.597c-0.437,0.901-0.342,2.011-0.147,3.034c0.194,1.022,0.479,2.056,0.383,3.082
		c-0.221,2.356-2.378,3.894-4.513,4.338c-0.849,0.176-1.742,0.23-2.59-0.032c-0.82-0.256-1.55-0.792-2.261-1.32
		c-1.728-1.282-3.457-2.563-5.185-3.845c-2.97-2.202-7.35,0.035-10.414,1.172c-3.531,1.309-6.919,3.253-9.337,6.363
		c-0.244,0.314-0.478,0.639-0.713,0.963c-0.573,0.792-1.152,1.578-1.891,2.18c-2.494,2.03-6.308,1.368-8.875-0.788
		c-1.177-0.988-2.371-2.333-3.82-2.214c-1.132,0.093-2.018,1.135-2.343,2.307c-0.324,1.172-0.19,2.451,0.01,3.678
		c0.731,4.468,2.367,8.875,5.139,12.356c6.011,7.548,14.125,6.801,21.996,4.815c3.111-0.785,6.223-1.57,9.334-2.355
		c5.688-1.435,11.679-3.048,15.724-7.521c3.568-3.946,4.936-9.588,4.756-15.132C504.18,57.349,503.692,54.484,502.888,51.727
		L502.888,51.727z"/>
	<path fill="#3B455A" d="M493.512,5.244c0.079-2.192,0.006-4.391-0.22-6.576c-1.778,1.13-3.844,1.792-5.946,1.905
		c-0.285-1.225-0.569-2.45-0.855-3.675c-0.242-1.018-13.98,1.348-15.104,1.506c-10.523,1.483-20.153,2.807-28.202,10.559
		c-6.875,6.621-10.345,14.967-9.429,24.598c0.875,9.2,6.421,20.218,13.201,26.48c-0.573-2.372-3.203-7.678-3.168-10.064
		c-0.18-2.342,0.09-4.702,0.691-6.959c1.2-4.509,3.711-8.644,6.954-11.923c5.17-5.229,11.74-8.864,18.54-11.454
		c6.231-2.373,13.886-4.995,20.644-4.705c3.248,0.14,3.934,0.804,5.067-2.753c0.2-0.627,1.312-7.674,1.058-7.62
		C495.665,4.79,494.588,5.017,493.512,5.244L493.512,5.244z"/>
	<path fill="#E6E6E7" d="M402.055,33.107l6.791,29.345L420.99,69.7l45.383-10.503l5.944-13.336c0.499-1.435,2.244-1.839,3.323-0.769
		l11.368,9.33l45.213-10.463l7.726-11.846l-6.791-29.345L402.055,33.107L402.055,33.107z"/>
	<path fill="#587BC9" d="M460.173,52.681l-38.721,8.961c-1.262,0.292-2.523-0.495-2.815-1.758l-4.987-21.551
		c-0.293-1.262,0.494-2.523,1.757-2.815l38.721-8.961c1.263-0.292,2.523,0.494,2.816,1.757l4.987,21.551
		C462.223,51.128,461.437,52.389,460.173,52.681L460.173,52.681z"/>
	<path fill="#EAC5B0" d="M528.18,36.943l-38.721,8.961c-1.263,0.292-2.523-0.495-2.816-1.758l-4.986-21.551
		c-0.292-1.263,0.495-2.523,1.758-2.816l38.721-8.96c1.263-0.293,2.523,0.494,2.816,1.757l4.986,21.551
		C530.229,35.39,529.442,36.651,528.18,36.943L528.18,36.943z"/>
	<polyline fill="#3B455A" points="650.917,292.027 354.201,352.662 394.557,550.145 691.271,489.512 650.917,292.027 	"/>
	<polyline fill="#59595B" points="644.733,257.121 347.106,317.941 354.201,352.662 651.83,291.842 644.733,257.121 	"/>
	<polygon fill="#E6E6E7" points="616.547,299.052 651.83,291.842 644.733,257.121 644.173,257.236 616.547,299.052 	"/>
	<polygon fill="#E6E6E7" points="347.106,317.941 353.11,347.324 376.49,311.936 347.106,317.941 	"/>
	<polyline fill="#E6E6E7" points="429.243,301.156 401.618,342.972 456.329,331.792 483.955,289.976 429.243,301.156 	"/>
	<polygon fill="#E6E6E7" points="536.708,279.196 509.083,321.012 563.794,309.832 591.42,268.016 536.708,279.196 	"/>
	<polyline fill="#3B455A" points="376.49,311.936 353.11,347.324 354.201,352.662 401.618,342.972 429.243,301.156 376.49,311.936 	
		"/>
	<polygon fill="#3B455A" points="483.955,289.976 456.329,331.792 509.083,321.012 536.708,279.196 483.955,289.976 	"/>
	<polygon fill="#3B455A" points="591.42,268.016 563.794,309.832 616.547,299.052 644.173,257.236 591.42,268.016 	"/>
	<polygon fill="#E6E6E7" points="379.843,302.467 347.285,317.854 332.142,285.814 332.66,285.568 379.843,302.467 	"/>
	<polygon fill="#E6E6E7" points="606.794,156.013 619.608,183.128 579.678,168.828 606.794,156.013 	"/>
	<polygon fill="#E6E6E7" points="530.997,191.834 578.18,208.732 527.692,232.593 480.509,215.695 530.997,191.834 	"/>
	<polygon fill="#E6E6E7" points="431.829,238.702 479.011,255.599 428.524,279.46 381.341,262.562 431.829,238.702 	"/>
	<polygon fill="#3B455A" points="579.678,168.828 619.608,183.128 621.936,188.053 578.18,208.732 530.997,191.834 579.678,168.828 
			"/>
	<polygon fill="#3B455A" points="480.509,215.695 527.692,232.593 479.011,255.599 431.829,238.702 480.509,215.695 	"/>
	<polyline fill="#3B455A" points="381.341,262.562 428.524,279.46 379.843,302.467 332.66,285.568 381.341,262.562 	"/>
	<polyline fill="#3B455A" points="354.201,352.662 332.159,285.863 364.712,270.466 425.923,338.006 354.201,352.662 	"/>
	<polyline fill="#262C3A" points="389.276,297.57 364.712,270.466 400.205,292.844 389.276,297.57 	"/>
	<polyline fill="#3A393A" points="425.923,338.006 425.923,338.006 431.619,336.842 428.274,337.525 425.923,338.006 	"/>
	<polyline fill="#949394" points="425.923,338.006 413.763,324.588 416.217,320.874 436.338,335.877 431.619,336.842 
		425.923,338.005 	"/>
	<polyline fill="#262C3A" points="413.763,324.588 398.264,307.486 416.217,320.874 413.763,324.588 	"/>
	<polyline fill="#262C3A" points="425.923,338.006 398.264,307.486 413.763,324.588 425.923,338.006 	"/>
	<path fill="#A6A8AA" d="M361.914,290.994c0.602,2.58-1.003,5.16-3.584,5.763c-2.58,0.601-5.16-1.003-5.762-3.584
		c-0.601-2.581,1.003-5.161,3.584-5.763S361.313,288.414,361.914,290.994L361.914,290.994z"/>
	<path fill="#A6A8AA" d="M366.905,333.55c0.602,2.581-1.003,5.16-3.583,5.762c-2.581,0.601-5.16-1.003-5.762-3.583
		c-0.601-2.582,1.003-5.16,3.584-5.762C363.724,329.365,366.304,330.969,366.905,333.55L366.905,333.55z"/>
	<path fill="#A6A8AA" d="M401.365,325.519c0.602,2.58-1.003,5.16-3.583,5.761c-2.581,0.603-5.161-1.002-5.762-3.582
		c-0.601-2.582,1.003-5.162,3.584-5.763C398.184,321.334,400.764,322.938,401.365,325.519L401.365,325.519z"/>
	<polygon fill="#E6E6E7" points="669.478,451.508 399.694,506.638 399.284,504.629 669.067,449.498 669.478,451.508 	"/>
	<polygon fill="#E6E6E7" points="487.064,490.181 493.762,522.951 491.545,523.404 484.848,490.634 487.064,490.181 	"/>
	<polygon fill="#E6E6E7" points="584.872,470.195 591.567,502.966 589.352,503.419 582.655,470.648 584.872,470.195 	"/>
	<polygon fill="#E6E6E7" points="643.756,325.639 373.973,380.769 373.52,378.552 643.304,323.422 643.756,325.639 	"/>
	<path fill="#EAC5B0" d="M404.922,271.825c0.267,1.522,0.472,3.119,1.339,4.398c1.199,1.766,3.382,2.538,5.435,3.124
		c3.224,0.919,6.569,1.655,9.908,1.351c3.339-0.303,6.705-1.781,8.623-4.531c-1.654-3.158-3.543-6.192-5.647-9.069
		c-0.171-0.91,1.09-1.333,2.015-1.33c0.926,0.003,2.185-0.25,2.183-1.176c0-0.292-0.148-0.563-0.3-0.813
		c-1.742-2.887-4.356-5.124-6.924-7.307c-3.399-2.89-6.798-5.78-10.197-8.67c-0.638-0.542-1.32-1.106-2.146-1.24
		c-0.746-0.121-1.497,0.127-2.211,0.371c-3.055,1.044-6.191,1.977-9.15,3.231C398.485,257.682,403.602,264.297,404.922,271.825
		L404.922,271.825z"/>
	<polygon fill="#7DB5DB" points="459.322,93.601 366.234,190.41 398.011,262.527 420.791,251.377 406.997,195.002 463.786,163.736 
		459.322,93.601 	"/>
	<path fill="#EACDB0" d="M603.508,86.531c0.32-0.37,0.657-0.788,0.647-1.276c-0.014-0.624-0.57-1.07-0.999-1.524
		c-1.789-1.894-1.47-5.389,0.704-6.827c2.173-1.438,5.613-0.252,6.328,2.254c2.677-1.088,5.127-2.728,7.154-4.787
		c0.764-0.775,1.591-1.669,2.677-1.713c0.66-0.027,1.283,0.275,1.872,0.574c1.292,0.656,2.573,1.334,3.842,2.033
		c1.683,0.926,3.464,2.023,4.146,3.817c1.073,2.815-1.011,5.765-2.963,8.059c-0.434,0.509-0.876,1.026-1.44,1.385
		c-0.671,0.426-1.465,0.599-2.221,0.842c-1.802,0.581-3.434,1.584-5.045,2.578c-4.978,3.071-9.954,6.141-14.932,9.212
		c-0.157,0.079-4.238-6.778-4.235-7.725C599.051,90.688,601.838,88.463,603.508,86.531"/>
	<polygon fill="#7DB5DB" points="500.942,88.815 566.642,116.004 596.176,88.815 614.817,95.398 566.642,157.769 512.097,157.769 
		500.942,88.815 	"/>
	<path fill="#587BC9" d="M678.565,106.381L560.362,64.636c-1.146-0.405-1.754-1.674-1.349-2.82l43.103-122.044
		c0.404-1.146,1.673-1.752,2.818-1.348L723.139-19.83c1.146,0.404,1.753,1.673,1.349,2.818l-43.103,122.045
		C680.979,106.179,679.712,106.786,678.565,106.381"/>
	<path fill="#E5E5E5" d="M683.033,100.368l19.581-55.445l-19.556,55.372C683.05,100.319,683.041,100.343,683.033,100.368"/>
	<path fill="#4F6EB5" d="M676.183,105.093c-0.817,0-1.649-0.136-2.465-0.424l-105.32-37.196
		c20.994,5.179,47.393,12.681,71.875,12.681c27.92,0,53.348-9.764,65.391-43.865l-3.049,8.634l-19.581,55.445
		C681.97,103.276,679.17,105.093,676.183,105.093"/>
	<path fill="#FFFFFF" d="M603.824-50.516l-6.91,19.566c3.46-8.123,13.908-24.768,39.316-15.794l-23.065-8.146
		C609.353-56.237,605.149-54.269,603.824-50.516L603.824-50.516z"/>
	<polygon fill="#FFFFFF" points="675.841,34.443 624.831,-24.362 599.214,48.171 675.841,34.443 	"/>
	<polygon fill="#7B4F34" points="746.728,95.713 750.272,86.851 758.05,83.558 758.213,81.574 755.77,81.315 761.469,76.754 
		762.708,71.004 757.433,65.322 749.454,64.085 744.255,69.989 742.383,79.091 737.006,91.02 746.728,95.713 	"/>
	<path fill="#305399" d="M752.699,95.537c0.286,0.53,0.477,1.055,0.552,1.571c0.521,3.577-10.684,18.568-12.499,22.851
		c-3.819,9.003-6.742,18.385-8.696,27.968c13.637-1.077,27.274-2.153,40.91-3.23c-8.729,27.902-20.863,54.737-36.047,79.72
		c-0.605,0.996-1.335,2.077-2.473,2.326c-1.088,0.237-2.161-0.371-3.102-0.964c-20.041-12.63-37.468-29.386-50.876-48.915
		c-11.889-17.316,15.76-41.936,25.943-55.738c9.538-12.927,19.076-25.854,28.614-38.781
		C739.12,85.295,750.043,90.624,752.699,95.537L752.699,95.537z"/>
	<path fill="#7B4F34" d="M773.516,81.451c0.669-2.418,1.523-4.863,3.175-6.752c0.451-0.516,0.963-0.97,1.389-1.49
		c14.872-18.193,46.486-14.508,52.053,14.936c2.995,15.84-6.962,32.843-21.335,38.315c0.56,4.187-0.1,9.275-0.019,12.462
		c0.017,0.659,0.014,1.381-0.387,1.891c-0.354,0.454-0.938,0.624-1.488,0.748c-5.166,1.169-10.731,0.313-15.358-2.364
		c-0.339-0.196-0.685-0.412-0.904-0.746c-0.266-0.406-0.304-0.924-0.33-1.415c-0.178-3.439-0.085-6.89,0.25-10.315
		c-8.548-2.786-14.764-10.834-17.382-19.54C770.676,98.857,771.196,89.827,773.516,81.451L773.516,81.451z"/>
	<path fill="#3B455A" d="M744.446,522.009l-7.004,7.298c-4.513,4.701-2.981,12.695,3.123,14.973
		c3.599,1.34,8.535,0.832,15.125-4.229l14.74-18.74l-2.87-5.643l-16.57-1.581L744.446,522.009L744.446,522.009z"/>
	<path fill="#3B455A" d="M759.927,316.867l-46.068,104.654l33.275,96.383l22.787-1.729l6.424-74.392
		c0,0,69.412-97.32,64.713-100.199S759.927,316.867,759.927,316.867"/>
	<path fill="#3B455A" d="M868.492,538.712l-4.509,9.054c-2.904,5.833,0.941,13.008,7.447,13.359
		c3.834,0.207,8.396-1.752,13.176-8.547l8.48-22.282l-4.423-4.531l-16.289,3.433L868.492,538.712L868.492,538.712z"/>
	<path fill="#3B455A" d="M794.092,354.154c-6.183,12.588,8.978,44.506,12.599,56.924c4.06,13.916,6.096,36.24,14.131,48.447
		l49.012,74.465l21.234-8.445c-4.657-21.154-12.317-43.328-14.938-64.678c-3.791-30.891,19.838-63.601,26.357-94.766
		c1.9-9.084,3.215-18.529,1.273-27.605c-1.939-9.075-7.683-17.793-16.351-21.108c-13.276-5.078-27.451,3.526-39.474,11.106
		c-14.587,9.199-30.115,17.535-47.07,20.689C797.522,349.806,795.358,351.574,794.092,354.154"/>
	<path fill="#305399" d="M859.571,150.573c22.638,18.524,31.322,49.949,36.772,79.482c4.829,26.171,8.181,52.628,10.029,79.184
		c0.657,9.441,0.905,19.732-4.359,27.34c-3.467,5.01-8.852,8.095-14.141,10.83c-39.503,20.43-83.994,30.238-128.172,28.257
		c-4.912-0.222-10.09-0.677-14.17-3.608c-3.053-2.191-5.157-5.544-7.022-8.9c-18.604-33.496-20.398-74.211-17.928-112.716
		c1.779-27.734,5.827-56.253,19.841-79.682C766.028,127.948,821.838,119.696,859.571,150.573L859.571,150.573z"/>
	<path fill="#7DB5DB" d="M883.477,268.515l0.576,6.089c0.127,1.339-0.645,2.601-1.896,3.104l-90.395,36.334
		c-1.892,0.76-3.984-0.509-4.175-2.531l-0.601-6.354c-0.127-1.34,0.647-2.606,1.903-3.106l90.42-36.068
		C881.201,265.227,883.287,266.495,883.477,268.515 M902.672,225.402c-0.899-0.544-2.004-0.634-2.976-0.243
		c0,0-133.468,53.242-136.604,54.443c-0.522,0.2-1.085,0.313-1.541,0.669c-0.89,0.697-1.364,1.797-1.258,2.92l14.011,148.161
		c0.172,1.826-1.303,3.358-3.144,3.314c-8.153-0.192-16.844,1.87-24.785,5.991c-20.666,10.726-30.783,32.277-22.551,48.041
		c4.074,7.803,11.89,12.998,22.003,14.629c3.587,0.578,7.315,0.681,11.085,0.324c6.482-0.613,13.092-2.582,19.322-5.814
		c16.163-8.389,26.329-23.575,25.377-37.862c0-0.106-0.004-0.215-0.016-0.323l-11.073-117.098c-0.126-1.341,0.648-2.605,1.904-3.107
		l90.419-36.067c1.891-0.754,3.977,0.514,4.167,2.532L895,390.361c0.172,1.825-1.304,3.357-3.146,3.314
		c-8.154-0.193-16.846,1.871-24.784,5.991c-9.855,5.114-17.65,12.815-21.953,21.683c-4.459,9.195-4.672,18.557-0.598,26.359
		c4.075,7.802,11.89,12.996,22.003,14.628c9.758,1.573,20.556-0.377,30.407-5.491c16.371-8.496,26.54-23.868,25.349-38.291
		l-0.013-0.162l-18.012-190.47C904.156,226.881,903.567,225.946,902.672,225.402"/>
	<path fill="#77ABCF" d="M752.571,503.859c-2.285,0-4.541-0.176-6.743-0.531l0,0c-4.878-0.786-9.215-2.41-12.862-4.748
		c19.082-7.135,48.376-25.358,65.541-71.604l3.09,32.677c0.012,0.108,0.016,0.217,0.016,0.323c0.041,0.614,0.061,1.229,0.062,1.847
		c0.006,13.732-9.969,27.986-25.438,36.016c-6.23,3.232-12.84,5.201-19.322,5.814C755.458,503.789,754.009,503.859,752.571,503.859"
		/>
	<polyline fill="#F1F1F1" points="922.266,418.393 919.809,392.406 919.809,392.406 922.266,418.393 	"/>
	<path fill="#394256" d="M873.271,462.867c-2.287,0-4.545-0.174-6.748-0.53c-0.393-0.063-0.781-0.132-1.168-0.206
		c0.387,0.074,0.775,0.143,1.168,0.206C868.726,462.693,870.983,462.867,873.271,462.867c1.029,0,2.065-0.034,3.104-0.105l0,0
		C875.336,462.833,874.3,462.867,873.271,462.867 M865.345,462.129c-0.014-0.003-0.027-0.006-0.041-0.008
		C865.317,462.123,865.332,462.127,865.345,462.129 M865.284,462.117c-0.01-0.002-0.021-0.004-0.031-0.006
		C865.264,462.113,865.272,462.115,865.284,462.117 M865.221,462.105c-0.006-0.002-0.012-0.003-0.018-0.005
		C865.209,462.103,865.215,462.104,865.221,462.105 M865.159,462.093c-0.002-0.001-0.005-0.001-0.008-0.002
		C865.154,462.092,865.157,462.092,865.159,462.093"/>
	<path fill="#77ABCF" d="M873.271,462.867c-2.287,0-4.545-0.174-6.748-0.53c-0.393-0.063-0.781-0.132-1.168-0.206
		c-0.003-0.001-0.007-0.001-0.01-0.002c-0.013-0.002-0.027-0.006-0.041-0.008c-0.007-0.002-0.014-0.002-0.02-0.004
		c-0.012-0.002-0.021-0.004-0.031-0.006c-0.01-0.002-0.021-0.004-0.032-0.006c-0.006-0.002-0.012-0.003-0.018-0.005
		c-0.016-0.002-0.03-0.005-0.044-0.008c-0.002-0.001-0.005-0.001-0.008-0.002c-4.562-0.899-8.618-2.552-12.035-4.854
		c17.593-5.531,47.728-21.149,66.692-64.83l2.457,25.986l0.013,0.162c0.063,0.76,0.094,1.523,0.094,2.288
		c0.008,13.737-9.935,27.955-25.442,36.003c-6.626,3.439-13.678,5.448-20.555,5.916C875.336,462.833,874.3,462.867,873.271,462.867"
		/>
	<path fill="#3B455A" d="M777.692,109.804c0.163,0.748,0.395,1.468,0.811,2.112c1.841,2.85,5.984,2.617,9.363,2.311
		c5.065-0.46,10.184-0.33,15.22,0.386c1.976,0.28,3.961,0.652,5.952,0.516c4.429-0.303,14.208-12.86,16.493-7.956
		c0.485,1.046,0.161,2.271-0.171,3.376c-1.106,3.692-2.307,7.543-5.022,10.278c-2.977,2.996-7.279,4.163-11.369,5.212
		c-2.698,0.692-5.437,1.389-8.222,1.336c-2.484-0.048-4.913-0.691-7.314-1.331c-9.174-2.444-20.354-6.47-22.192-17.517
		c-0.335-2.013,0.35-4.667,2.375-4.921c1.737-0.217,3.077,1.575,3.515,3.271C777.377,107.832,777.479,108.842,777.692,109.804
		L777.692,109.804z"/>
	<polygon fill="#7B4F34" points="839.331,274.614 837.602,284.001 830.627,288.763 830.858,290.74 833.304,290.512 828.616,296.107 
		828.536,301.988 834.827,306.519 842.893,306.158 846.826,299.345 846.867,290.053 849.787,277.298 839.331,274.614 	"/>
	<path fill="#305399" d="M833.323,275.999c-0.225-0.138-0.446-0.279-0.666-0.421c3.466-13.539,18.905-37.015,16.044-50.086
		c-1.512-6.906-10.738-16.253-14.67-22.254c-5.589-8.529-11.178-17.057-16.767-25.586c-1.569-2.395-3.17-4.861-3.775-7.66
		c-0.776-3.588,0.171-7.334,1.556-10.734c2.366-5.812,6.221-11.254,11.743-14.235c8.473-4.574,25.036-3.792,32.638,2.079
		c5.272,4.071,8.912,9.85,12.344,15.558c4.677,7.782,9.176,15.67,13.491,23.657c4.6,8.513,9.095,17.536,9.226,27.212
		c0.088,6.474-1.798,12.793-3.665,18.992c-4.364,14.485-23.929,58.072-45.304,49.297
		C841.365,280.159,837.108,278.339,833.323,275.999L833.323,275.999z"/>
	<path fill="#305399" d="M841.688,86.869c-0.53-3.641-2.037-7.294-4.787-9.615c-0.293-0.247-0.575-0.461-0.856-0.673
		c0.467-9.232-2.408-18.48-7.915-25.908c-8.349-11.262-22.34-18.118-37.519-15.537c-18.051,3.07-25.046,23.431-25.189,40.398
		c-0.935,0.531-1.728,1.296-2.391,2.234c-3.001,4.248-3.445,11.878-3.474,15.803c-0.021,3.05,0.194,6.226,1.679,8.891
		c1.857,3.336,8.12,6.654,11.146,2.499c1.441-1.979,0.649-6.398,0.546-8.787c-0.136-3.175-0.42-6.342-0.578-9.515
		c-0.039-0.78,0.013-1.7,0.082-2.678c0.463-0.696,0.72-1.56,0.599-2.578c-1.196-9.94,0.256-21.773,6.483-29.827
		c5.935-7.673,9.429-9.495,16.254-9.586c17.922-0.24,33.862,13.231,33.562,31.678c-0.004,0.233,0.003,0.596,0.021,1.04
		c-5.627,1.923-6.985,14.358-6.214,20.493c0.39,3.092,1.256,6.24,3.181,8.647c1.926,2.406,5.089,3.902,7.898,3.057
		c2.781-0.835,4.563-3.639,5.691-6.442C841.614,96.225,842.36,91.484,841.688,86.869L841.688,86.869z"/>
	<path fill="#587BC9" d="M145.528,124.896c-0.315,0.106-0.628,0.218-0.94,0.337c-5.202,1.974-9.627,5.527-13.956,9.024
		c-6.502,5.251-9.704,7.554-12.215,15.332c-2.343,7.254-3.809,14.915-5.243,22.39c-7.363,38.378-8.786,76.595-14.07,115.262
		c-1.439,10.525-2.55,22.898,5.234,30.127c13.812-10.748,31.172-11.368,47.923-11.383c11.764-0.012,23.265-3.82,35.056-2.509
		c11.269,1.255,21.112-1.561,32.548-0.817c2.757,0.181,6.27,0.149,7.357-2.391c-3.957-11.863-3.889-24.621-4.785-37.095
		c-2.317-32.266-13.006-63.228-17.32-95.276c-1.466-10.893-2.248-28.974-10.684-37.219c-9.168-8.961-30.078-9.143-41.86-7.39
		C150.188,123.643,147.811,124.123,145.528,124.896L145.528,124.896z"/>
	<path fill="#EAC5B0" d="M109.902,279.017c1.693-8.043-3.455-11.953-8.171-18.809c-2.626-3.82-3.674-14.98-9.979-14.112
		c-1.219,0.168-2.468,0.346-3.553,0.928c-0.887,0.476-1.615,1.197-2.295,1.94c-0.529,0.578-1.507,1.37-1.476,2.134
		c0.033,0.802,1.367,2.321,1.787,3.036c5.453,9.265,7.785,20.251,5.235,31.091c-0.296,1.258-0.625,2.604-0.167,3.813
		c0.564,1.488,2.175,2.322,3.735,2.641c5.288,1.078,10.765-2.529,13.052-7.418C108.979,282.32,109.571,280.589,109.902,279.017
		L109.902,279.017z"/>
	<path fill="#587BC9" d="M62.416,205.806c7.315,20.134,20.71,55.077,24.896,53.881c6.617-1.899,12.85-5.122,18.224-9.425
		c-5.274-14.132-12.309-28.881-12.783-44.219c-0.57-18.435,22.86-17.899,37.362-23.918c4.452-1.848,8.999-3.93,12.17-7.56
		c3.704-4.24,5.042-10.048,5.526-15.657c0.648-7.493,1.694-23.426-6.441-27.477c-12.495-6.222-31.626,12.387-40.916,18.822
		c-15.22,10.545-29.217,22.855-41.604,36.618c-0.74,0.822-1.506,1.715-1.666,2.809c-0.128,0.877,0.154,1.757,0.437,2.598
		C58.026,193.485,59.845,198.731,62.416,205.806L62.416,205.806z"/>
	<path fill="#EAC5B0" d="M154.277,124.354c0.194,0.376,0.453,0.738,0.8,1.08c1.369,1.35,3.266,2.116,5.149,2.386
		c2.481,0.355,5.004-0.057,7.466-0.527c3.327-0.635,3.209-2.582,3.691-5.602c0.264-1.65,0.429-3.313,0.553-4.979
		c0.068-0.913-0.285-4.182,0.297-4.822c0.395-0.434,2.002-0.288,2.707-0.656c1.117-0.583,2.05-1.657,2.721-2.7
		c1.082-1.683,1.677-3.624,2.26-5.537c1.014-3.329,2.029-6.658,3.043-9.987c1.036-3.401,2.078-6.831,2.411-10.371
		c0.502-5.336-0.361-12.869-4.388-16.77c-3.674-3.559-9.034-4.805-13.95-5.434c-6.509-0.831-13.256,0.36-18.878,3.815
		c-2.271,1.395-4.423,3.205-5.763,5.692c-2.067,3.835-1.91,8.623-1.687,13.099c0.205,4.132,0.41,8.264,0.615,12.396
		c0.236,4.752,0.827,10.229,4.388,12.805c1.891,1.368,4.363,1.661,5.981,3.416c2.027,2.197,1.895,5.495,1.98,8.282
		C153.722,121.532,153.602,123.04,154.277,124.354L154.277,124.354z"/>
	<path fill="#3B455A" d="M174.882,70.941c0.224,0.388,0.412,0.79,0.556,1.208c0.759,2.19,0.246,4.663,0.987,6.86
		c1.175,3.482,5.239,5.575,5.851,9.2c0.501,2.963-1.524,5.781-1.695,8.782c-0.187,3.278,1.913,6.382,1.587,9.618
		c-0.283,2.811-2.066,6.761-3.745,9.014c0.52-0.698,5.227-0.449,6.447-1.195c1.87-1.142,2.084-1.862,2.64-3.811
		c0.553-1.935,0.124-3.843,0.986-5.825c1.056-2.432,3.227-4.217,3.987-6.811c1.037-3.539-0.846-7.273-0.699-10.958
		c0.222-5.578,5.043-10.833,3.294-16.134c-1.027-3.11-4.046-5.098-5.744-7.898c-1.29-2.127-1.766-4.633-2.661-6.953
		c-0.894-2.321-2.432-4.642-4.817-5.346c-1.325-0.391-2.75-0.23-4.108-0.483c-2.348-0.437-4.299-2.057-6.561-2.823
		c-3.236-1.095-8.946,2.178-10.834,4.921c-1.875,2.722-0.929,5.036,0.987,7.443C164.533,63.759,172.247,66.383,174.882,70.941
		L174.882,70.941z"/>
	<path fill="#3B455A" d="M131.3,54.465c-1.94,1.423-4.334,2.451-6.105,4.114c-3.453,3.241-4.109,8.425-4.233,13.16
		c-0.112,4.215-1.956,7.961-1.499,12.354c0.306,2.951,1.561,5.935,3.962,7.677c2.99,2.17,7.684,2.525,9.018,5.97
		c1.45,3.743-2.427,8.456-0.074,11.706c1.299,1.794,3.843,2.057,5.7,3.262c2.072,1.344,3.137,3.745,4.403,5.867
		c1.265,2.121,3.166,4.246,5.636,4.299c0.099-3.756,0.21-6.732-1.394-10.168c-0.935-2.001-3.687-5.693-1.573-7.86
		c1.333-1.801,4.48-2.387,4.562-4.626c0.038-1.052-0.696-1.947-1.275-2.826c-2.24-3.4-2.468-7.931-0.949-11.71
		c1.519-3.779,4.65-6.797,8.316-8.573c4.295-2.08,3.604-3.13,4.852-7.242c1.149-3.785,3.297-4.673,6.704-6.053
		c3.059-1.238,4.043-2.01,5.172-4.873c0.825-2.095,1.843-4.605,0.645-6.943c-0.953-1.859-2.667-3.188-4.328-4.454
		c-3.468-2.644-7.366-5.425-11.717-5.112c-2.416,0.174-4.689,1.31-7.108,1.447c-1.613,0.091-3.217-0.266-4.832-0.32
		c-2.754-0.092-5.657,0.745-7.886,2.385c-2.249,1.653-2.186,3.384-3.435,5.73C133.249,52.825,132.34,53.702,131.3,54.465
		L131.3,54.465z"/>
	<path fill="#3B455A" d="M141.042,39.022c0.422-2.618,0.151-6.028-2.348-6.911c-1.37-0.485-2.904,0.046-4.327-0.244
		c-3.033-0.617-4.067-4.29-5.657-6.945c-0.238-0.397-0.521-0.8-0.945-0.989c-0.605-0.27-1.299-0.03-1.957,0.05
		c-3.018,0.369-5.312-2.61-8.155-3.69c-3.518-1.337-7.945,0.863-9.005,4.474c-0.435,1.484-0.36,3.079-0.768,4.57
		c-1.657,6.043-10.507,8.614-10.73,14.876c-0.151,4.231,3.99,8.285,2.38,12.202c-1.029,2.504-4.252,4.211-3.883,6.894
		c0.237,1.725,2.075,2.9,3.816,2.876c1.742-0.025,3.342-0.98,4.654-2.126c2.083-1.819,3.652-4.152,5.636-6.078
		c1.984-1.926,4.63-3.488,7.373-3.145c2.658,0.332,5.062,2.4,7.703,1.958c2.113-0.354,3.68-2.239,5.756-2.77
		c1.941-0.497,3.96,0.266,5.96,0.386c2.001,0.121,4.458-0.92,4.51-2.923c0.013-0.486-0.122-0.987,0.03-1.448
		c0.427-1.292,2.633-1.218,3.052-2.512c-1.044-1.61-2.517-1.033-3.265-3.135C140.292,42.765,140.776,40.665,141.042,39.022
		L141.042,39.022z"/>
	<path fill="#EAC5B0" d="M251.575,67.994c-0.511,0.011-1.021,0.03-1.531,0.056c-0.306,0.015-0.622,0.035-0.897,0.168
		c-0.27,0.131-0.48,0.357-0.679,0.582c-2.247,2.538-3.704,5.349-5.197,8.354c-0.557,1.12-0.664,1.194-0.125,2.382
		c0.599,1.319,1.352,2.6,2.065,3.861c0.348,1.942,0.777,3.872,0.959,5.838c0.462,4.975-3.847,15.973,1.94,18.53
		c1.12,0.495,2.269,0.997,3.467,1.032c0.979,0.029,1.937-0.257,2.863-0.588c0.722-0.258,1.926-0.476,2.256-1.207
		c0.346-0.767-0.085-2.901-0.111-3.788c-0.073-2.536-0.147-5.072-0.221-7.608c-0.071-2.487,0.054-5.42,1.924-6.758
		c0.409-0.292,0.88-0.484,1.248-0.836c0.415-0.397,0.664-0.963,0.887-1.52c0.818-2.041,1.508-4.21,1.872-6.419
		c0.333-2.017-0.809-3.057-1.815-4.631c-1.051-1.642-1.072-3.669-1.962-5.374c-0.895-1.715-2.489-2.019-4.351-2.068
		C253.303,67.977,252.439,67.975,251.575,67.994L251.575,67.994z"/>
	<path fill="#587BC9" d="M256.017,162.301c0.832-5.271,1.6-10.654,2.729-16.114c3.16-15.298,4.142-31.188,2.9-46.913
		c-6.535-1.761-13.359-2.078-19.952-0.928c0.081-0.014-8.125,36.579-9.901,40.256c-4.582,9.494-4.205,8.372-12.556,4.349
		c-7.318-3.526-14.055-8.905-21.253-12.792c-6.957-3.756-14.626-7.298-22.461-6.238c-0.723,9.043-1.105,18.112-1.147,27.184
		c-0.016,3.25,0.029,6.585,1.211,9.613c1.141,2.924,3.258,5.343,5.335,7.697c12.912,14.634,26.346,29.668,44.032,37.921
		c0.88,0.41,1.792,0.809,2.761,0.863c1.514,0.085,2.931-0.674,4.256-1.409C248.583,196.567,253.152,180.308,256.017,162.301
		L256.017,162.301z"/>
	<path fill="#3B455A" d="M356.206,102.237l-29.924,27.643c-8.334,7.699-22.454,6.193-31.874-3.453L166.695-4.359
		c-4.508-4.617-5.087-11.338-1.268-14.866l56.098-51.822c3.819-3.528,10.443-2.392,14.653,2.502l119.243,138.61
		C364.216,80.289,364.539,94.539,356.206,102.237L356.206,102.237z"/>
	<polygon fill="#E6E6E6" points="214.304,2.086 202.362,13.042 197.814,8.046 209.755,-2.911 214.304,2.086 	"/>
	<polygon fill="#E6E6E6" points="232.208,-14.34 220.266,-3.384 215.717,-8.38 227.659,-19.336 232.208,-14.34 	"/>
	<polygon fill="#E6E6E6" points="250.111,-30.766 238.17,-19.81 233.62,-24.806 245.562,-35.762 250.111,-30.766 	"/>
	<polygon fill="#E6E6E6" points="227.175,16.223 215.234,27.179 210.684,22.182 222.626,11.226 227.175,16.223 	"/>
	<polygon fill="#E6E6E6" points="245.079,-0.203 233.137,10.753 228.588,5.757 240.53,-5.2 245.079,-0.203 	"/>
	<polygon fill="#E6E6E6" points="262.983,-16.628 251.041,-5.672 246.491,-10.669 258.433,-21.625 262.983,-16.628 	"/>
	<polygon fill="#E6E6E6" points="240.047,30.359 228.105,41.315 223.555,36.319 235.497,25.363 240.047,30.359 	"/>
	<polygon fill="#E6E6E6" points="257.95,13.934 246.008,24.89 241.459,19.894 253.401,8.937 257.95,13.934 	"/>
	<polygon fill="#E6E6E6" points="275.853,-2.492 263.911,8.464 259.362,3.468 271.304,-7.488 275.853,-2.492 	"/>
	<path fill="#E6E6E6" d="M304.088,53.887l7.334-1.045c-0.773-5.336-3.175-10.308-6.873-14.227c-3.698-3.919-8.514-6.594-13.78-7.656
		l-1.298,6.602C297.105,39.256,303.178,45.659,304.088,53.887L304.088,53.887z"/>
	<path fill="#E6E6E6" d="M288.519,74.421l1.212,7.837c5.303-0.81,10.223-3.252,14.076-6.99c3.854-3.739,6.454-8.591,7.442-13.885
		l-7.483-1.433C302.171,67.306,296.24,73.181,288.519,74.421L288.519,74.421z"/>
	<path fill="#E6E6E6" d="M267.261,60.008l-6.991,1.326c1.014,5.296,3.639,10.154,7.512,13.899c3.872,3.746,8.804,6.198,14.111,7.017
		l1.161-7.754C275.392,73.461,269.005,67.733,267.261,60.008L267.261,60.008z"/>
	<path fill="#E6E6E6" d="M282.116,37.424l-1.242-6.528c-5.272,0.994-10.103,3.608-13.824,7.479
		c-3.721,3.872-6.152,8.812-6.955,14.138l6.838,1.064C267.896,45.54,273.971,38.891,282.116,37.424L282.116,37.424z"/>
	<path fill="#E6E6E6" d="M286.23,45.289c6.168,0.289,10.951,5.543,10.685,11.736c-0.267,6.192-5.483,10.977-11.65,10.688
		c-6.168-0.289-10.952-5.543-10.685-11.736C274.846,49.785,280.062,45,286.23,45.289L286.23,45.289z"/>
	<polygon fill="#7DB5DB" points="303.151,100.903 293.083,110.141 290.94,107.787 301.008,98.55 303.151,100.903 	"/>
	<polygon fill="#7DB5DB" points="320.953,83.824 310.885,93.062 308.742,90.708 318.81,81.471 320.953,83.824 	"/>
	<polygon fill="#7DB5DB" points="338.755,66.746 328.687,75.983 326.544,73.629 336.612,64.392 338.755,66.746 	"/>
	<path fill="#7DB5DB" d="M232.446-53.168c2.384,2.619,2.21,6.675-0.39,9.06c-2.599,2.385-6.639,2.195-9.023-0.423
		c-2.384-2.619-2.21-6.675,0.39-9.06C226.022-55.976,230.062-55.786,232.446-53.168L232.446-53.168z"/>
	<path fill="#D7E8F4" d="M278.497,341.162c38.728-5.166,39.035,45.918,42.766,72.416c1.28,9.094,3.492,18.83,3.438,28.015
		c-0.044,7.369-1.963,14.533-1.373,22.044c0.453,5.77,3.002,12,8.495,14.359c2.764,1.187,5.939,1.242,8.708,2.418
		c2.77,1.174,5.142,4.312,3.747,6.896c-0.662,1.229-1.988,1.969-3.245,2.645c-6.85,3.675-13.701,7.349-20.551,11.023
		c-5.232,2.807-10.494,5.627-16.132,7.575c-7.988,2.761-16.529,3.701-25.006,4.115c-21.895,1.069-43.965-1.259-65.099-6.87
		c-7.91-2.1-20.895-7.576-21.934-17.334c-0.348-3.264,0.691-6.494,1.714-9.598c8.446-25.596,16.891-51.193,25.336-76.789
		c7.09-21.491,10.451-52.514,35.557-60.492c4.534-1.439,8.756-1.01,13.132-0.581C271.376,341.331,274.79,341.656,278.497,341.162"/>
	<path fill="#3B455A" d="M282.618,567.669c6.837,2.877,13.827,5.387,20.932,7.517c3.759,1.127,7.625,2.156,11.547,1.991
		c9.179-0.387,15.782-10.638,7.257-17.274c-3.733-2.908-7.921-5.231-12.36-6.869c-6.547-2.416-2.714,2.738-4.698,7.117
		c-2.286,5.043-4.083,4.93-8.809,2.817c-6.088-2.722-10.063-5.958-17.048-5.532c-1.929,0.118-4.165,0.674-4.911,2.457
		c-0.566,1.352-0.001,2.967,1.005,4.033c1.006,1.066,2.377,1.697,3.718,2.291C280.369,566.711,281.492,567.195,282.618,567.669
		L282.618,567.669z"/>
	<path fill="#EACDB0" d="M299.742,564.439c1.974,0.105,3.947,0.211,5.92,0.316c2.144,0.115,4.536,0.146,6.133-1.289
		c1.948-1.751,1.728-5.061,0.152-7.154c-1.577-2.094-4.119-3.21-6.615-4.01c-6.025-1.932-12.394-2.525-18.716-2.773
		c-0.633-0.024-1.289-0.043-1.877,0.194c-1.024,0.412-1.607,1.493-1.952,2.541C279.201,563.156,292.074,564.029,299.742,564.439
		L299.742,564.439z"/>
	<path fill="#3B455A" d="M337.267,522.738c-1.439-12.439-7.674-22.314-19.193-27.722c-9.343-4.386-19.845-5.417-30.082-6.731
		c-22.798-2.926-44.563-5.85-67.583-4.944c-18.408,0.724-29.754,16.429-38.369,31.919c-5.43,9.762-3.922,14.341,2.913,22.518
		c6.302,7.537,13.952,13.951,22.497,18.808c16.917,9.612,42.907,7.237,61.539,5.159c17.586-1.959,34.799-7.213,50.484-15.403
		C329.568,541.068,338.668,534.852,337.267,522.738"/>
	<path fill="#EACDB0" d="M223.801,582.98c-0.108,0.877-0.207,1.812,0.171,2.611c0.275,0.581,0.777,1.027,1.32,1.372
		c4.07,2.595,9.543-0.199,12.658-3.886c3.116-3.686,5.225-8.348,9.2-11.086c9.097-6.268,0.77-17.741-8.738-15.11
		C227.314,559.953,224.985,573.287,223.801,582.98"/>
	<path fill="#3B455A" d="M346.388,523.9c7.856-5.772,15.733-12.315,18.603-22.037c2.869-9.725-1.18-23.455-11.315-29.062
		c-12.357-6.835-24.495,1.565-33.307,9.495c-18.05,16.225-37.721,30.57-56.953,45.411c-6.5,5.016-29.049,23.483-29.049,23.483
		c-0.62,2.602,11.5,26.15,14.713,25.289C284.163,567.203,318.287,544.55,346.388,523.9"/>
	<path fill="#3B455A" d="M169.81,535.085c-7.692-3.744-15.428-8.255-18.47-17.246c-3.041-8.993,0.416-23.79,9.944-32.03
		c11.616-10.047,23.487-4.781,32.16,0.876c17.764,11.569,37.022,20.835,55.876,30.712c6.373,3.338,28.51,15.986,28.51,15.986
		c0.672,2.445-10.209,29.165-13.31,29.135C230.668,562.32,197.327,548.48,169.81,535.085"/>
	<path fill="#3B455A" d="M222.625,560.158c-2.912,6.822-5.457,13.8-7.623,20.894c-1.146,3.754-2.195,7.615-2.05,11.537
		c0.34,9.183,10.557,15.835,17.238,7.344c2.926-3.718,5.271-7.894,6.931-12.323c1.567-4.184,0.012-4.129-2.456-4.074
		c-1.388,0.031-3.064,0.061-4.637-0.662c-5.03-2.311-4.909-4.107-2.772-8.822c2.752-6.074,6.008-10.032,5.618-17.02
		c-0.108-1.93-0.653-4.168-2.432-4.924c-1.35-0.572-2.967-0.015-4.038,0.985c-1.071,1-1.711,2.368-2.31,3.707
		C223.595,557.914,223.105,559.035,222.625,560.158"/>
	<path fill="#3B455A" d="M246.881,311.467c3.057,5.566,6.858,10.723,11.271,15.289c-2.173-10.93-2.836-22.159-1.964-33.27
		c0.066-0.847,0.108-1.801-0.46-2.434c-0.53-0.59-1.408-0.688-2.202-0.714C239.355,289.863,241.553,301.764,246.881,311.467
		L246.881,311.467z"/>
	<path fill="#EAC5B0" d="M272.448,268.826c-34.073-3.452-24.314,40.79-14.628,58.219c1.837,3.304,4.339,6.834,7.86,9.063
		c0.585,0.371-1.389,7.635-1.594,8.514c-0.584,2.5-2.268,5.344,0.465,7.177c1.134,0.76,2.54,0.985,3.902,1.081
		c1.745,0.124,3.504,0.066,5.239-0.168c1.827-0.248,3.674-0.715,5.189-1.766c4.343-3.015,2.363-10.67,2.249-15.176
		c1.06-0.679,2.028-1.443,2.884-2.236C295.844,322.566,309.973,272.629,272.448,268.826L272.448,268.826z"/>
	<path fill="#3B455A" d="M285.704,321.494c2.747,2.681,7.389,0.983,10.456-1.324c12.597-9.48,17.716-27.732,11.885-42.38
		c-4.88-12.258-22.647-18.892-23.033-2.54c-0.136,5.798,4.671,12.925,5.016,19.267C290.521,303.58,287.926,312.803,285.704,321.494
		L285.704,321.494z"/>
	<path fill="#3B455A" d="M236.976,259.212c-14.215,12.187-17.356,33.211-29.762,47.233c14.434,3.326,30.183,0.482,42.541-7.684
		c12.122-8.008,42.787-17.672,34.914-35.132C276.655,245.858,249.431,248.534,236.976,259.212L236.976,259.212z"/>
	<path fill="#305399" d="M315.284,517.174c16.912-16.326,18.246-43.225,2.641-61.167c-10.362-11.913-25.671-16.978-40.208-14.794
		l-31.372-36.069c4.177-14.095,1.284-29.956-9.078-41.87c-15.605-17.941-42.43-20.35-60.943-5.863l-0.034-0.066l-59.367,51.637
		l0.044,0.076c-9.291,9.424-9.895,24.564-1.064,34.717c6.984,8.029,17.877,10.646,27.382,7.481l32.748-9.075l55.259,63.532
		l-13.526,31.174c-4.451,8.976-3.37,20.125,3.614,28.156c8.83,10.151,23.907,11.651,34.528,3.757l0.07,0.054l59.367-51.636
		L315.284,517.174"/>
	<path fill="#364053" d="M228.787,570.908c-2.736-1.437-5.257-3.396-7.407-5.866c-0.013-0.015-0.025-0.029-0.038-0.044
		c0.013,0.015,0.025,0.029,0.038,0.044C223.53,567.513,226.051,569.472,228.787,570.908L228.787,570.908 M221.333,564.986
		c-0.01-0.011-0.019-0.021-0.029-0.033C221.314,564.965,221.323,564.976,221.333,564.986 M221.294,564.941
		c-0.011-0.012-0.021-0.023-0.031-0.035C221.273,564.918,221.283,564.93,221.294,564.941 M221.256,564.898
		c-0.013-0.016-0.026-0.031-0.039-0.046C221.23,564.867,221.243,564.883,221.256,564.898 M221.217,564.853
		c-0.012-0.014-0.024-0.028-0.036-0.043C221.193,564.824,221.205,564.839,221.217,564.853 M221.171,564.799
		c-0.01-0.012-0.019-0.023-0.029-0.035C221.151,564.775,221.162,564.787,221.171,564.799 M221.133,564.754
		c-0.011-0.014-0.023-0.028-0.035-0.042C221.109,564.726,221.122,564.74,221.133,564.754 M221.097,564.71
		c-0.014-0.015-0.027-0.031-0.04-0.048C221.07,564.679,221.083,564.693,221.097,564.71 M221.056,564.662
		c-0.012-0.014-0.024-0.029-0.037-0.045C221.031,564.633,221.044,564.648,221.056,564.662 M221.014,564.611
		c-0.011-0.014-0.022-0.026-0.033-0.039C220.991,564.585,221.003,564.599,221.014,564.611 M220.976,564.566
		c-0.026-0.031-0.051-0.063-0.076-0.094C220.925,564.504,220.95,564.535,220.976,564.566 M220.896,564.468
		c-0.011-0.013-0.022-0.026-0.033-0.039C220.874,564.441,220.885,564.455,220.896,564.468"/>
	<path fill="#D6D6D6" d="M220.856,564.42c-0.011-0.014-0.022-0.027-0.033-0.04C220.834,564.393,220.845,564.406,220.856,564.42
		 M220.819,564.375c-0.025-0.031-0.05-0.063-0.075-0.094C220.769,564.313,220.794,564.344,220.819,564.375 M220.739,564.275
		c-0.011-0.014-0.021-0.025-0.031-0.039C220.718,564.25,220.728,564.262,220.739,564.275 M220.7,564.228
		c-0.011-0.014-0.022-0.028-0.033-0.042C220.678,564.199,220.69,564.214,220.7,564.228 M220.665,564.183
		c-0.013-0.016-0.025-0.032-0.038-0.047C220.64,564.152,220.652,564.167,220.665,564.183 M220.624,564.132
		c-0.011-0.015-0.021-0.026-0.032-0.041C220.603,564.105,220.613,564.117,220.624,564.132 M220.583,564.08
		c-0.009-0.012-0.018-0.023-0.027-0.034C220.565,564.057,220.574,564.068,220.583,564.08 M220.546,564.033
		c-0.009-0.012-0.019-0.025-0.029-0.037C220.527,564.009,220.536,564.021,220.546,564.033 M220.511,563.988
		c-0.011-0.015-0.023-0.029-0.034-0.043C220.489,563.959,220.5,563.974,220.511,563.988 M220.466,563.93
		c-0.008-0.01-0.016-0.02-0.023-0.029C220.451,563.91,220.458,563.92,220.466,563.93 M220.429,563.883
		c-0.006-0.01-0.013-0.018-0.02-0.025C220.416,563.865,220.423,563.873,220.429,563.883 M220.394,563.837
		c-0.007-0.009-0.015-0.019-0.022-0.028C220.379,563.818,220.386,563.826,220.394,563.837 M220.351,563.781
		c-0.007-0.01-0.014-0.019-0.022-0.028C220.337,563.763,220.344,563.771,220.351,563.781 M220.312,563.73
		c-0.005-0.007-0.01-0.015-0.015-0.021C220.302,563.717,220.307,563.723,220.312,563.73 M220.278,563.685
		c-0.005-0.006-0.008-0.011-0.013-0.016C220.27,563.674,220.273,563.679,220.278,563.685 M220.244,563.641
		c-0.001-0.002-0.002-0.003-0.002-0.004C220.242,563.638,220.244,563.64,220.244,563.641 M220.192,563.57
		c-0.003-0.002-0.005-0.006-0.007-0.01C220.187,563.564,220.189,563.568,220.192,563.57 M220.161,563.529
		c-0.002-0.004-0.005-0.006-0.007-0.01C220.156,563.523,220.159,563.527,220.161,563.529 M220.129,563.486
		c-0.001,0-0.002-0.002-0.002-0.002S220.128,563.486,220.129,563.486"/>
	<path fill="#2C4C8D" d="M240.685,573.832c-4.106,0-8.2-0.984-11.898-2.924c-2.736-1.437-5.257-3.396-7.407-5.866
		c-0.013-0.015-0.025-0.029-0.038-0.044c-0.003-0.004-0.006-0.008-0.009-0.012c-0.01-0.011-0.019-0.021-0.029-0.033
		c-0.003-0.004-0.007-0.008-0.01-0.012c-0.011-0.012-0.021-0.023-0.031-0.035c-0.003-0.004-0.005-0.006-0.007-0.008
		c-0.013-0.016-0.026-0.031-0.039-0.046l0,0c-0.012-0.014-0.024-0.028-0.036-0.043c-0.004-0.004-0.006-0.007-0.01-0.011
		c-0.009-0.012-0.02-0.023-0.029-0.035c-0.003-0.003-0.006-0.007-0.009-0.01c-0.011-0.014-0.024-0.028-0.035-0.042
		c-0.001-0.001-0.001-0.001-0.001-0.002c-0.014-0.017-0.027-0.031-0.04-0.048h-0.001c-0.012-0.014-0.025-0.029-0.037-0.045
		c-0.001-0.002-0.003-0.004-0.005-0.006c-0.011-0.013-0.023-0.026-0.033-0.039c-0.002-0.002-0.004-0.004-0.005-0.006
		c-0.026-0.031-0.051-0.063-0.076-0.094c-0.002-0.001-0.003-0.003-0.004-0.005c-0.011-0.013-0.022-0.026-0.033-0.039
		c-0.003-0.004-0.005-0.006-0.007-0.009c-0.011-0.014-0.022-0.027-0.033-0.04c-0.001-0.002-0.002-0.003-0.004-0.005
		c-0.025-0.031-0.05-0.063-0.075-0.094c-0.001-0.002-0.004-0.004-0.005-0.006c-0.011-0.014-0.021-0.025-0.031-0.039
		c-0.003-0.002-0.005-0.006-0.008-0.009c-0.01-0.014-0.022-0.028-0.033-0.042c-0.001-0.001-0.001-0.002-0.002-0.003
		c-0.013-0.016-0.025-0.03-0.038-0.047c-0.001-0.001-0.002-0.003-0.003-0.004c-0.011-0.015-0.021-0.026-0.032-0.041
		c-0.003-0.004-0.006-0.007-0.009-0.011c-0.009-0.012-0.018-0.023-0.027-0.034c-0.003-0.004-0.006-0.009-0.01-0.013
		c-0.01-0.012-0.019-0.024-0.029-0.037c-0.002-0.004-0.004-0.006-0.006-0.008c-0.011-0.015-0.022-0.029-0.034-0.043
		c-0.004-0.006-0.007-0.011-0.011-0.016c-0.008-0.01-0.015-0.02-0.023-0.029c-0.005-0.007-0.009-0.012-0.014-0.018
		c-0.006-0.01-0.013-0.018-0.02-0.025c-0.005-0.008-0.01-0.014-0.015-0.021c-0.008-0.011-0.015-0.019-0.022-0.028
		c-0.007-0.01-0.014-0.02-0.021-0.027c-0.007-0.01-0.014-0.019-0.022-0.028c-0.005-0.009-0.011-0.015-0.017-0.022
		c-0.005-0.008-0.01-0.014-0.015-0.021c-0.007-0.009-0.013-0.017-0.019-0.025c-0.005-0.006-0.008-0.011-0.013-0.016
		c-0.007-0.011-0.014-0.019-0.021-0.028c0-0.001-0.002-0.003-0.002-0.004c-0.017-0.021-0.034-0.044-0.05-0.066
		c-0.003-0.002-0.005-0.006-0.007-0.01c-0.008-0.01-0.016-0.021-0.024-0.031c-0.002-0.002-0.005-0.006-0.007-0.01
		c-0.009-0.011-0.017-0.023-0.025-0.033c-0.001,0-0.002-0.002-0.002-0.002c-4.523-6.092-5.954-13.646-4.439-20.648
		c6.244,7.179,14.525,9.98,23.657,9.98c32.545-0.004,75.848-35.609,75.848-35.609l0.136,0.023l-59.351,51.622l-0.07-0.054
		c-3.187,2.369-6.773,3.893-10.473,4.589C243.864,573.684,242.274,573.832,240.685,573.832"/>
	<path fill="#273D54" d="M217.854,413.615l-7.796-8.963c-0.898-1.031-0.789-2.595,0.243-3.492l8.963-7.797
		c1.032-0.896,1.14-2.459,0.243-3.49l-7.796-8.965c-0.897-1.03-2.46-1.14-3.492-0.242l-8.963,7.796
		c-1.032,0.897-2.595,0.789-3.492-0.243l-7.634-8.777c-0.897-1.031-2.46-1.14-3.492-0.242l-8.963,7.795
		c-1.032,0.897-1.14,2.461-0.243,3.492l7.634,8.777c0.897,1.032,0.788,2.596-0.244,3.492l-8.776,7.634
		c-1.032,0.897-1.141,2.46-0.244,3.492l7.797,8.963c0.897,1.031,2.46,1.14,3.491,0.243l8.777-7.635
		c1.032-0.896,2.595-0.787,3.492,0.244l7.796,8.963c0.897,1.033,2.461,1.141,3.492,0.244l8.964-7.797
		C218.642,416.211,218.751,414.648,217.854,413.615L217.854,413.615z"/>
	<path fill="#273D54" d="M296.108,490.514c-3.439,2.991-8.651,2.628-11.642-0.811c-2.99-3.438-2.628-8.65,0.811-11.641
		c3.438-2.992,8.65-2.629,11.641,0.811C299.909,482.311,299.546,487.523,296.108,490.514L296.108,490.514z"/>
	<path fill="#273D54" d="M272.556,489.127c-3.439,2.99-8.651,2.628-11.642-0.811c-2.991-3.438-2.627-8.65,0.811-11.642
		c3.439-2.991,8.651-2.628,11.641,0.812C276.357,480.925,275.994,486.136,272.556,489.127L272.556,489.127z"/>
	<path fill="#273D54" d="M293.754,513.498c-3.439,2.99-8.651,2.628-11.642-0.811c-2.991-3.438-2.628-8.65,0.811-11.642
		c3.438-2.991,8.65-2.627,11.641,0.812C297.555,505.296,297.192,510.508,293.754,513.498L293.754,513.498z"/>
	<path fill="#273D54" d="M271.025,512.331c-3.439,2.991-8.651,2.628-11.642-0.812c-2.991-3.438-2.628-8.65,0.811-11.641
		c3.438-2.991,8.65-2.628,11.641,0.811C274.826,504.129,274.463,509.341,271.025,512.331L271.025,512.331z"/>
	<path fill="#EAC5B0" d="M218.097,410.13l-7.797-8.964c-0.897-1.031-0.788-2.596,0.244-3.491l8.963-7.797
		c1.032-0.897,1.141-2.46,0.244-3.492l-7.797-8.963c-0.897-1.032-2.46-1.142-3.492-0.244l-8.963,7.797
		c-1.032,0.897-2.595,0.788-3.492-0.243l-7.634-8.777c-0.897-1.03-2.46-1.139-3.492-0.242l-8.963,7.796
		c-1.032,0.897-1.141,2.46-0.244,3.492l7.634,8.776c0.898,1.031,0.789,2.595-0.243,3.492l-8.777,7.635
		c-1.031,0.896-1.14,2.459-0.243,3.49l7.796,8.965c0.898,1.03,2.461,1.139,3.492,0.242l8.777-7.634
		c1.032-0.897,2.595-0.788,3.492,0.243l7.796,8.964c0.898,1.03,2.461,1.14,3.492,0.243l8.964-7.797
		C218.885,412.724,218.994,411.16,218.097,410.13L218.097,410.13z"/>
	<path fill="#EAC5B0" d="M296.35,487.027c-3.438,2.99-8.65,2.627-11.641-0.811c-2.991-3.438-2.628-8.65,0.811-11.641
		c3.439-2.991,8.651-2.629,11.641,0.81C300.152,478.824,299.789,484.037,296.35,487.027L296.35,487.027z"/>
	<path fill="#EAC5B0" d="M272.798,485.641c-3.438,2.991-8.65,2.627-11.641-0.811c-2.99-3.439-2.628-8.651,0.811-11.641
		c3.438-2.992,8.65-2.629,11.641,0.811C276.6,477.438,276.237,482.65,272.798,485.641L272.798,485.641z"/>
	<path fill="#EAC5B0" d="M293.996,510.012c-3.438,2.991-8.65,2.628-11.641-0.811c-2.991-3.438-2.628-8.65,0.811-11.642
		c3.438-2.989,8.65-2.628,11.641,0.812C297.797,501.809,297.435,507.021,293.996,510.012L293.996,510.012z"/>
	<path fill="#EAC5B0" d="M271.267,508.845c-3.438,2.991-8.65,2.627-11.641-0.812c-2.991-3.438-2.628-8.65,0.811-11.641
		c3.438-2.99,8.65-2.628,11.641,0.811C275.068,500.642,274.706,505.854,271.267,508.845L271.267,508.845z"/>
	<path fill="#2C4C8D" d="M241.469,393.029c-1.557-6.315-4.597-12.365-9.16-17.611c-8.371-9.624-20.131-14.551-31.957-14.551
		c-9.199,0-18.44,2.982-26.15,9.056c1.71-2.46,3.746-4.751,6.11-6.808c7-6.088,15.639-9.073,24.241-9.073
		c10.325,0,20.595,4.303,27.903,12.704C239.026,374.301,241.979,383.765,241.469,393.029"/>
	<path fill="#EBEBEB" d="M135.205,452.563c-4.684,0-9.353-1.281-13.437-3.803l0,0C125.852,451.281,130.521,452.563,135.205,452.563
		c2.726,0,5.455-0.434,8.08-1.308l13.85-3.838l0,0l-13.85,3.838C140.66,452.129,137.931,452.563,135.205,452.563"/>
	<path fill="#ADAFB1" d="M121.768,448.76c-2.143-1.322-4.126-2.986-5.865-4.986c-0.016-0.019-0.031-0.035-0.046-0.054
		c0.015,0.017,0.03,0.035,0.046,0.054C117.642,445.773,119.625,447.438,121.768,448.76L121.768,448.76"/>
	<polyline fill="#ADAFB1" points="157.135,447.417 157.135,447.417 175.049,442.453 175.053,442.451 157.135,447.417 	"/>
	<path fill="#ADAFB1" d="M115.846,443.708c-0.014-0.017-0.029-0.034-0.044-0.052C115.816,443.673,115.832,443.691,115.846,443.708
		 M115.794,443.646c-0.014-0.016-0.027-0.031-0.04-0.047C115.767,443.615,115.781,443.632,115.794,443.646 M115.746,443.591
		c-0.015-0.017-0.029-0.034-0.043-0.052C115.717,443.557,115.731,443.574,115.746,443.591 M115.691,443.525
		c-0.014-0.016-0.028-0.033-0.042-0.049C115.663,443.492,115.677,443.51,115.691,443.525 M115.642,443.469
		c-0.013-0.016-0.026-0.031-0.038-0.046C115.616,443.438,115.629,443.453,115.642,443.469 M115.59,443.406
		c-0.013-0.016-0.027-0.033-0.04-0.049C115.563,443.375,115.577,443.391,115.59,443.406 M115.537,443.344
		c-0.011-0.014-0.022-0.027-0.033-0.04C115.515,443.316,115.526,443.33,115.537,443.344 M115.492,443.289
		c-0.013-0.016-0.026-0.032-0.039-0.049C115.466,443.257,115.479,443.273,115.492,443.289 M115.437,443.223
		c-0.011-0.014-0.022-0.027-0.033-0.041C115.415,443.195,115.426,443.209,115.437,443.223 M115.386,443.16
		c-0.01-0.012-0.02-0.024-0.029-0.037C115.366,443.136,115.376,443.148,115.386,443.16 M115.339,443.103
		c-0.012-0.015-0.024-0.03-0.036-0.045C115.315,443.072,115.327,443.088,115.339,443.103 M115.286,443.037
		c-0.009-0.012-0.017-0.021-0.025-0.031C115.269,443.016,115.277,443.025,115.286,443.037 M115.239,442.979
		c-0.01-0.013-0.02-0.025-0.03-0.037C115.219,442.953,115.229,442.966,115.239,442.979 M115.189,442.916
		c-0.008-0.01-0.016-0.02-0.023-0.029C115.173,442.896,115.181,442.906,115.189,442.916 M115.135,442.848
		c-0.007-0.008-0.013-0.018-0.02-0.025C115.122,442.832,115.128,442.839,115.135,442.848 M115.094,442.796
		c-0.011-0.013-0.022-0.027-0.032-0.041C115.072,442.769,115.083,442.783,115.094,442.796 M115.04,442.728
		c-0.006-0.008-0.012-0.016-0.018-0.024C115.028,442.712,115.034,442.719,115.04,442.728 M114.988,442.66
		c-0.006-0.008-0.012-0.016-0.018-0.023C114.976,442.645,114.982,442.652,114.988,442.66 M114.946,442.607
		c-0.005-0.008-0.009-0.013-0.014-0.02C114.937,442.595,114.941,442.6,114.946,442.607 M114.892,442.535
		c-0.005-0.006-0.009-0.01-0.013-0.017C114.883,442.525,114.887,442.529,114.892,442.535 M114.8,442.416
		c-0.004-0.006-0.007-0.01-0.01-0.014C114.793,442.406,114.797,442.41,114.8,442.416 M114.742,442.339
		c-0.002-0.003-0.004-0.006-0.006-0.009C114.738,442.334,114.74,442.336,114.742,442.339 M114.709,442.295
		c-0.001-0.002-0.002-0.003-0.003-0.004C114.707,442.292,114.708,442.293,114.709,442.295 M114.653,442.22
		c-0.001-0.002-0.003-0.004-0.005-0.006C114.65,442.216,114.652,442.218,114.653,442.22 M114.565,442.1L114.565,442.1L114.565,442.1
		"/>
	<path fill="#2C4C8D" d="M135.205,452.563c-4.684,0-9.353-1.281-13.437-3.803c-2.143-1.322-4.126-2.986-5.865-4.986
		c-0.016-0.019-0.031-0.037-0.046-0.054c-0.004-0.004-0.007-0.008-0.011-0.012c-0.014-0.017-0.03-0.035-0.044-0.052
		c-0.003-0.004-0.006-0.006-0.008-0.01c-0.013-0.015-0.027-0.031-0.04-0.047c-0.003-0.003-0.006-0.006-0.008-0.009
		c-0.015-0.017-0.029-0.034-0.043-0.052c-0.004-0.004-0.008-0.008-0.012-0.014c-0.014-0.016-0.028-0.033-0.042-0.049
		c-0.002-0.003-0.005-0.006-0.007-0.008c-0.013-0.016-0.026-0.031-0.038-0.046c-0.005-0.006-0.009-0.011-0.014-0.017
		c-0.013-0.016-0.027-0.031-0.04-0.049c-0.005-0.005-0.008-0.009-0.013-0.014c-0.011-0.014-0.022-0.027-0.033-0.04
		c-0.004-0.005-0.008-0.01-0.012-0.015c-0.013-0.016-0.026-0.032-0.039-0.049c-0.005-0.006-0.011-0.012-0.016-0.018
		c-0.011-0.014-0.022-0.027-0.033-0.041c-0.006-0.008-0.012-0.015-0.018-0.021c-0.01-0.012-0.02-0.024-0.029-0.037
		c-0.006-0.006-0.012-0.014-0.018-0.021c-0.012-0.015-0.024-0.03-0.036-0.045c-0.006-0.007-0.012-0.014-0.017-0.021
		c-0.009-0.012-0.017-0.021-0.025-0.031c-0.007-0.009-0.015-0.018-0.022-0.027c-0.01-0.013-0.02-0.025-0.03-0.037
		c-0.007-0.01-0.014-0.018-0.02-0.025c-0.008-0.01-0.016-0.02-0.023-0.029c-0.01-0.013-0.021-0.025-0.031-0.039
		c-0.007-0.009-0.013-0.016-0.02-0.025c-0.007-0.008-0.014-0.018-0.021-0.026c-0.011-0.013-0.022-0.027-0.032-0.041
		c-0.007-0.009-0.015-0.019-0.022-0.027c-0.006-0.009-0.012-0.016-0.018-0.024c-0.012-0.014-0.023-0.028-0.034-0.043
		c-0.006-0.008-0.012-0.016-0.018-0.023c-0.008-0.01-0.016-0.02-0.024-0.029c-0.005-0.008-0.009-0.013-0.014-0.02
		c-0.013-0.018-0.027-0.035-0.04-0.053c-0.005-0.006-0.009-0.01-0.013-0.017c-0.027-0.034-0.053-0.069-0.079-0.103
		c-0.003-0.006-0.007-0.01-0.01-0.014c-0.016-0.021-0.032-0.043-0.048-0.063c-0.002-0.003-0.004-0.005-0.006-0.009
		c-0.009-0.012-0.018-0.023-0.027-0.035c-0.001-0.002-0.002-0.003-0.003-0.004c-0.018-0.024-0.035-0.047-0.053-0.071
		c-0.001-0.002-0.003-0.004-0.005-0.006c-0.028-0.038-0.055-0.076-0.083-0.114l-0.001-0.001c-4.457-6.071-5.863-13.577-4.357-20.536
		c16.288,18.727,36.864,22.37,50.418,22.37c8.51,0,14.252-1.437,14.424-1.479l-17.914,4.964l-13.85,3.838
		C140.66,452.129,137.931,452.563,135.205,452.563"/>
	<path fill="#C6D6E1" d="M212.788,484.566l-9.048-10.531l9.138,10.507C212.848,484.55,212.818,484.559,212.788,484.566"/>
	<path fill="#364053" d="M231.178,505.974l-18.39-21.407c0.03-0.008,0.06-0.017,0.09-0.024l18.414,21.17L231.178,505.974"/>
	<path fill="#EBEBEB" d="M197.848,467.281l-5.911-6.775c0.003-0.012,0.005-0.021,0.008-0.032l5.908,6.793
		C197.851,467.271,197.85,467.277,197.848,467.281"/>
	<path fill="#ADAFB1" d="M191.937,460.506l-15.967-18.303l0.067-0.019l15.908,18.289
		C191.942,460.484,191.94,460.494,191.937,460.506"/>
	<polyline fill="#C6D6E1" points="203.577,473.849 197.848,467.281 197.853,467.267 203.577,473.849 	"/>
	<polyline fill="#2C4C8D" points="231.205,506.005 231.178,505.974 231.292,505.712 212.878,484.542 203.74,474.035 
		203.709,473.999 203.577,473.849 197.853,467.267 191.945,460.474 176.037,442.185 188.504,438.777 212.447,466.434 
		236.389,494.091 231.205,506.005 	"/>
	<path fill="#EAC5B0" d="M265.061,467.105c-0.152,0.079-0.304,0.15-0.458,0.213c-5.199,2.08-10.864,2.967-16.448,2.506
		c-0.274-0.021-0.556-0.049-0.796-0.183c-0.266-0.147-0.449-0.403-0.624-0.651c-1.625-2.309-3.293-4.723-3.754-7.508
		c-0.137-0.824-0.091-1.82,0.599-2.291c0.471-0.322,1.091-0.287,1.659-0.236c0.89,0.076,3.22,0.709,3.968,0.167
		c0.8-0.583,0.176-1.679-0.088-2.388c1.099-0.681,2.203-1.363,3.303-2.045c0.634-0.392,2.332-1.927,3.091-1.912l11.717,0.23
		l3.771,7.924C269.296,462.799,267.333,465.91,265.061,467.105L265.061,467.105z"/>
	<path fill="#D7E8F4" d="M329.07,409.113c1.583,7.537,2.921,15.139,4.244,22.693c0.311,1.778,0.622,3.598,0.32,5.376
		c-0.885,5.214-6.412,8.074-11.279,10.142c-7.712,3.274-15.425,6.549-23.137,9.824c-7.702,3.271-16.14,8.397-24.271,10.297
		c-4.716,1.104-4.806-0.846-8.12-4.953c-1.613-2-3.721-6.06-5.951-7.377c2.97,1.269,11.486-6.414,13.692-8.129
		c6.965-5.418,14.265-10.65,20.844-16.642c1.587-1.444,3.233-3.084,3.567-5.203c0.241-1.538-0.254-3.085-0.742-4.563
		c-5.784-17.494-11.568-34.989-17.353-52.484c-1.463-4.427-2.931-9.238-1.435-13.654c2.464-7.273,12.291-9.785,19.357-6.777
		c7.065,3.007,11.739,9.791,15.313,16.588C321.492,378.27,325.803,393.552,329.07,409.113L329.07,409.113z"/>
	<path fill="#EAC5B0" d="M208.896,462.434c0.141,0.031,0.28,0.055,0.42,0.07c4.688,0.525,9.485-0.025,13.917-1.648
		c0.217-0.08,0.44-0.166,0.605-0.328c0.184-0.179,0.275-0.428,0.361-0.668c0.802-2.24,1.617-4.574,1.367-6.938
		c-0.074-0.7-0.334-1.498-1-1.726c-0.455-0.156-0.95,0.012-1.401,0.178c-0.705,0.263-2.455,1.3-3.183,1.025
		c-0.781-0.293-0.52-1.324-0.465-1.959c-1.044-0.305-2.095-0.613-3.14-0.918c-0.602-0.178-2.325-1.043-2.938-0.861l-9.463,2.812
		l-1.286,7.28C204.492,459.886,206.783,461.972,208.896,462.434L208.896,462.434z"/>
	<path fill="#D7E8F4" d="M175.818,447.848c-0.214,0.785-0.349,1.598-0.443,2.405c-0.424,3.608-0.005,7.542,2.296,10.354
		c1.048,1.28,2.428,2.254,3.881,3.047c5.619,3.067,11.878,3.018,17.968,1.752c3.426-0.713,1.956,1.113,4.706-1.926
		c1.755-1.939,3.455-6.162,3.671-8.763c0.298-3.61,0.742-1.407-1.902-3.808c-2.535-2.303-6.66-4.2-9.611-6.041
		c-3.141-1.957-6.61-3.612-10.307-3.778c-3.697-0.167-7.655,1.437-9.439,4.679C176.277,446.426,176.014,447.126,175.818,447.848
		L175.818,447.848z"/>
</g>
</svg>
